<svg width="85" height="113" viewBox="0 0 85 113" fill="none" xmlns="http://www.w3.org/2000/svg">
<mask id="mask0_6_2235" style="mask-type:alpha" maskUnits="userSpaceOnUse" x="0" y="0" width="85" height="85">
<rect width="85" height="85" fill="white"/>
</mask>
<g mask="url(#mask0_6_2235)">
<rect x="0.5" y="0.5" width="84" height="84" rx="15.5" fill="white" stroke="#F1F1F1"/>
</g>
<path d="M49.0501 29.2239C52.8442 30.353 56.0823 32.8536 58.134 36.2389C60.1857 39.6242 60.9042 43.6519 60.1495 47.5378C59.3948 51.4237 57.221 54.8897 54.0513 57.261C50.8817 59.6322 46.9429 60.7391 43.0021 60.3659C39.0612 59.9928 35.4002 58.1664 32.7319 55.2424C30.0635 52.3184 28.5789 48.506 28.5669 44.5475C28.5549 40.589 30.0166 36.7678 32.6672 33.8277C35.3178 30.8876 38.9677 29.0391 42.9062 28.6422" stroke="#3C3B5C" stroke-width="2" stroke-linecap="round" stroke-linejoin="round"/>
<path d="M60.7562 34.4275C62.6354 37.4508 63.6292 40.9403 63.625 44.5" stroke="#007AFF" stroke-width="2" stroke-linecap="round" stroke-linejoin="round"/>
<path d="M53.8792 27.8294C55.4044 28.6757 56.8066 29.7267 58.0469 30.9532" stroke="#3C3B5C" stroke-width="2" stroke-linecap="round" stroke-linejoin="round"/>
<path d="M33.9494 60.4375C32.8734 59.7425 31.8697 58.9416 30.9531 58.0469" stroke="#007AFF" stroke-width="2" stroke-linecap="round" stroke-linejoin="round"/>
<path d="M54.4131 38.9219L34.5869 66.0156L46.8747 43.7031H35.7184L45.6077 22.9844H52.7795L43.2569 38.9219H54.4131Z" stroke="#007AFF" stroke-width="2" stroke-linecap="round" stroke-linejoin="round"/>
<path d="M33.6703 102.084C33.6703 102.78 33.4303 103.36 32.9503 103.824C32.4783 104.28 31.7543 104.508 30.7783 104.508H29.1703V108H28.0783V99.636H30.7783C31.7223 99.636 32.4383 99.864 32.9263 100.32C33.4223 100.776 33.6703 101.364 33.6703 102.084ZM30.7783 103.608C31.3863 103.608 31.8343 103.476 32.1223 103.212C32.4103 102.948 32.5543 102.572 32.5543 102.084C32.5543 101.052 31.9623 100.536 30.7783 100.536H29.1703V103.608H30.7783ZM40.6195 102.084C40.6195 102.78 40.3795 103.36 39.8995 103.824C39.4275 104.28 38.7035 104.508 37.7275 104.508H36.1195V108H35.0275V99.636H37.7275C38.6715 99.636 39.3875 99.864 39.8755 100.32C40.3715 100.776 40.6195 101.364 40.6195 102.084ZM37.7275 103.608C38.3355 103.608 38.7835 103.476 39.0715 103.212C39.3595 102.948 39.5035 102.572 39.5035 102.084C39.5035 101.052 38.9115 100.536 37.7275 100.536H36.1195V103.608H37.7275ZM45.7687 108.084C44.9927 108.084 44.2847 107.904 43.6447 107.544C43.0047 107.176 42.4967 106.668 42.1207 106.02C41.7527 105.364 41.5687 104.628 41.5687 103.812C41.5687 102.996 41.7527 102.264 42.1207 101.616C42.4967 100.96 43.0047 100.452 43.6447 100.092C44.2847 99.724 44.9927 99.54 45.7687 99.54C46.5527 99.54 47.2647 99.724 47.9047 100.092C48.5447 100.452 49.0487 100.956 49.4167 101.604C49.7847 102.252 49.9687 102.988 49.9687 103.812C49.9687 104.636 49.7847 105.372 49.4167 106.02C49.0487 106.668 48.5447 107.176 47.9047 107.544C47.2647 107.904 46.5527 108.084 45.7687 108.084ZM45.7687 107.136C46.3527 107.136 46.8767 107 47.3407 106.728C47.8127 106.456 48.1807 106.068 48.4447 105.564C48.7167 105.06 48.8527 104.476 48.8527 103.812C48.8527 103.14 48.7167 102.556 48.4447 102.06C48.1807 101.556 47.8167 101.168 47.3527 100.896C46.8887 100.624 46.3607 100.488 45.7687 100.488C45.1767 100.488 44.6487 100.624 44.1847 100.896C43.7207 101.168 43.3527 101.556 43.0807 102.06C42.8167 102.556 42.6847 103.14 42.6847 103.812C42.6847 104.476 42.8167 105.06 43.0807 105.564C43.3527 106.068 43.7207 106.456 44.1847 106.728C44.6567 107 45.1847 107.136 45.7687 107.136ZM55.5983 103.692C55.9023 103.74 56.1783 103.864 56.4263 104.064C56.6823 104.264 56.8823 104.512 57.0263 104.808C57.1783 105.104 57.2543 105.42 57.2543 105.756C57.2543 106.18 57.1463 106.564 56.9303 106.908C56.7143 107.244 56.3983 107.512 55.9823 107.712C55.5743 107.904 55.0903 108 54.5303 108H51.4103V99.636H54.4103C54.9783 99.636 55.4623 99.732 55.8623 99.924C56.2623 100.108 56.5623 100.36 56.7623 100.68C56.9623 101 57.0623 101.36 57.0623 101.76C57.0623 102.256 56.9263 102.668 56.6543 102.996C56.3903 103.316 56.0383 103.548 55.5983 103.692ZM52.5023 103.248H54.3383C54.8503 103.248 55.2463 103.128 55.5263 102.888C55.8063 102.648 55.9463 102.316 55.9463 101.892C55.9463 101.468 55.8063 101.136 55.5263 100.896C55.2463 100.656 54.8423 100.536 54.3143 100.536H52.5023V103.248ZM54.4343 107.1C54.9783 107.1 55.4023 106.972 55.7063 106.716C56.0103 106.46 56.1623 106.104 56.1623 105.648C56.1623 105.184 56.0023 104.82 55.6823 104.556C55.3623 104.284 54.9343 104.148 54.3983 104.148H52.5023V107.1H54.4343Z" fill="#1F1F1F"/>
</svg>
