<svg width="85" height="113" viewBox="0 0 85 113" fill="none" xmlns="http://www.w3.org/2000/svg">
<mask id="mask0_6_2217" style="mask-type:alpha" maskUnits="userSpaceOnUse" x="0" y="0" width="85" height="85">
<rect width="85" height="85" fill="white"/>
</mask>
<g mask="url(#mask0_6_2217)">
<rect x="0.5" y="0.5" width="84" height="84" rx="15.5" fill="white" stroke="#F1F1F1"/>
</g>
<path d="M61.6012 41.84H24.4332C23.1287 41.84 22.0674 40.7792 22.0674 39.4752V32.3901C22.0674 31.086 23.1287 30.0248 24.4332 30.0248H61.6008C62.9049 30.0248 63.9656 31.086 63.9656 32.3901V39.4756C63.9661 40.7792 62.9053 41.84 61.6012 41.84ZM24.4332 31.8373C24.1332 31.8373 23.8799 32.0906 23.8799 32.3901V39.4756C23.8799 39.7801 24.1283 40.028 24.4332 40.028H61.6008C61.9053 40.028 62.1531 39.7801 62.1531 39.4756V32.3901C62.1531 32.0901 61.8999 31.8373 61.6008 31.8373H24.4332Z" fill="#3C3B5C"/>
<path d="M56.4179 66.1121H29.6147C27.1035 66.1121 25.0603 64.0694 25.0603 61.5578V40.9338C25.0603 40.4335 25.4663 40.0275 25.9666 40.0275C26.4668 40.0275 26.8728 40.4335 26.8728 40.9338V61.5578C26.8728 63.0698 28.1031 64.2996 29.6147 64.2996H56.4179C57.9291 64.2996 59.1589 63.0698 59.1589 61.5578V40.9338C59.1589 40.4335 59.5649 40.0275 60.0651 40.0275C60.5654 40.0275 60.9714 40.4335 60.9714 40.9338V61.5578C60.9714 64.0694 58.9287 66.1121 56.4179 66.1121Z" fill="#3C3B5C"/>
<path d="M43.0168 66.1121C42.5165 66.1121 42.1105 65.7066 42.1105 65.2059V40.9338C42.1105 40.4335 42.5165 40.0275 43.0168 40.0275C43.517 40.0275 43.923 40.4335 43.923 40.9338V65.2054C43.923 65.7066 43.5175 66.1121 43.0168 66.1121Z" fill="#3C3B5C"/>
<path d="M31.7059 31.8342C28.8693 30.2972 27.8108 26.7392 29.3464 23.9022C30.8812 21.0666 34.4387 20.0076 37.2766 21.5419C41.5998 23.8837 43.9343 30.4168 44.0313 30.6937L42.3217 31.295C42.2999 31.2333 40.119 25.1429 36.4143 23.136C34.4545 22.0766 31.9995 22.8079 30.9405 24.765C29.8807 26.7238 30.6111 29.1798 32.57 30.2405L31.7059 31.8342Z" fill="#007AFF"/>
<path d="M54.3259 31.8341L53.4631 30.24C54.4124 29.7257 55.1043 28.8734 55.4125 27.8398C55.7201 26.8058 55.6064 25.7137 55.0921 24.7653C54.5792 23.8161 53.7273 23.1246 52.6937 22.8169C51.6597 22.5092 50.5685 22.6225 49.6197 23.1359C45.915 25.1423 43.7341 31.2328 43.7123 31.2944L42.0027 30.6931C42.0996 30.4163 44.4337 23.8831 48.757 21.5418C50.1308 20.7978 51.7136 20.6338 53.2107 21.0796C54.7092 21.5251 55.9431 22.5278 56.6866 23.9021C57.4311 25.276 57.5956 26.8579 57.1497 28.3564C56.7034 29.8544 55.7006 31.0892 54.3259 31.8341Z" fill="#007AFF"/>
<path d="M60.0651 53.9765H25.9666C25.4663 53.9765 25.0603 53.5705 25.0603 53.0703C25.0603 52.57 25.4663 52.164 25.9666 52.164H60.0651C60.5654 52.164 60.9714 52.57 60.9714 53.0703C60.9714 53.5705 60.5658 53.9765 60.0651 53.9765Z" fill="#3C3B5C"/>
<path d="M22.7792 108L20.7872 104.58H19.4672V108H18.3752V99.636H21.0752C21.7072 99.636 22.2392 99.744 22.6712 99.96C23.1112 100.176 23.4392 100.468 23.6552 100.836C23.8712 101.204 23.9792 101.624 23.9792 102.096C23.9792 102.672 23.8112 103.18 23.4752 103.62C23.1472 104.06 22.6512 104.352 21.9872 104.496L24.0872 108H22.7792ZM19.4672 103.704H21.0752C21.6672 103.704 22.1112 103.56 22.4072 103.272C22.7032 102.976 22.8512 102.584 22.8512 102.096C22.8512 101.6 22.7032 101.216 22.4072 100.944C22.1192 100.672 21.6752 100.536 21.0752 100.536H19.4672V103.704ZM31.676 104.46C31.676 104.668 31.664 104.888 31.64 105.12H26.384C26.424 105.768 26.644 106.276 27.044 106.644C27.452 107.004 27.944 107.184 28.52 107.184C28.992 107.184 29.384 107.076 29.696 106.86C30.016 106.636 30.24 106.34 30.368 105.972H31.544C31.368 106.604 31.016 107.12 30.488 107.52C29.96 107.912 29.304 108.108 28.52 108.108C27.896 108.108 27.336 107.968 26.84 107.688C26.352 107.408 25.968 107.012 25.688 106.5C25.408 105.98 25.268 105.38 25.268 104.7C25.268 104.02 25.404 103.424 25.676 102.912C25.948 102.4 26.328 102.008 26.816 101.736C27.312 101.456 27.88 101.316 28.52 101.316C29.144 101.316 29.696 101.452 30.176 101.724C30.656 101.996 31.024 102.372 31.28 102.852C31.544 103.324 31.676 103.86 31.676 104.46ZM30.548 104.232C30.548 103.816 30.456 103.46 30.272 103.164C30.088 102.86 29.836 102.632 29.516 102.48C29.204 102.32 28.856 102.24 28.472 102.24C27.92 102.24 27.448 102.416 27.056 102.768C26.672 103.12 26.452 103.608 26.396 104.232H30.548ZM32.7094 104.688C32.7094 104.016 32.8454 103.428 33.1174 102.924C33.3894 102.412 33.7614 102.016 34.2334 101.736C34.7134 101.456 35.2494 101.316 35.8414 101.316C36.3534 101.316 36.8294 101.436 37.2694 101.676C37.7094 101.908 38.0454 102.216 38.2774 102.6V99.12H39.3814V108H38.2774V106.764C38.0614 107.156 37.7414 107.48 37.3174 107.736C36.8934 107.984 36.3974 108.108 35.8294 108.108C35.2454 108.108 34.7134 107.964 34.2334 107.676C33.7614 107.388 33.3894 106.984 33.1174 106.464C32.8454 105.944 32.7094 105.352 32.7094 104.688ZM38.2774 104.7C38.2774 104.204 38.1774 103.772 37.9774 103.404C37.7774 103.036 37.5054 102.756 37.1614 102.564C36.8254 102.364 36.4534 102.264 36.0454 102.264C35.6374 102.264 35.2654 102.36 34.9294 102.552C34.5934 102.744 34.3254 103.024 34.1254 103.392C33.9254 103.76 33.8254 104.192 33.8254 104.688C33.8254 105.192 33.9254 105.632 34.1254 106.008C34.3254 106.376 34.5934 106.66 34.9294 106.86C35.2654 107.052 35.6374 107.148 36.0454 107.148C36.4534 107.148 36.8254 107.052 37.1614 106.86C37.5054 106.66 37.7774 106.376 37.9774 106.008C38.1774 105.632 38.2774 105.196 38.2774 104.7ZM47.2267 104.46C47.2267 104.668 47.2147 104.888 47.1907 105.12H41.9347C41.9747 105.768 42.1947 106.276 42.5947 106.644C43.0027 107.004 43.4947 107.184 44.0707 107.184C44.5427 107.184 44.9347 107.076 45.2467 106.86C45.5667 106.636 45.7907 106.34 45.9187 105.972H47.0947C46.9187 106.604 46.5667 107.12 46.0387 107.52C45.5107 107.912 44.8547 108.108 44.0707 108.108C43.4467 108.108 42.8867 107.968 42.3907 107.688C41.9027 107.408 41.5187 107.012 41.2387 106.5C40.9587 105.98 40.8187 105.38 40.8187 104.7C40.8187 104.02 40.9547 103.424 41.2267 102.912C41.4987 102.4 41.8787 102.008 42.3667 101.736C42.8627 101.456 43.4307 101.316 44.0707 101.316C44.6947 101.316 45.2467 101.452 45.7267 101.724C46.2067 101.996 46.5747 102.372 46.8307 102.852C47.0947 103.324 47.2267 103.86 47.2267 104.46ZM46.0987 104.232C46.0987 103.816 46.0067 103.46 45.8227 103.164C45.6387 102.86 45.3867 102.632 45.0667 102.48C44.7547 102.32 44.4067 102.24 44.0227 102.24C43.4707 102.24 42.9987 102.416 42.6067 102.768C42.2227 103.12 42.0027 103.608 41.9467 104.232H46.0987ZM54.6681 104.46C54.6681 104.668 54.6561 104.888 54.6321 105.12H49.3761C49.4161 105.768 49.6361 106.276 50.0361 106.644C50.4441 107.004 50.9361 107.184 51.5121 107.184C51.9841 107.184 52.3761 107.076 52.6881 106.86C53.0081 106.636 53.2321 106.34 53.3601 105.972H54.5361C54.3601 106.604 54.0081 107.12 53.4801 107.52C52.9521 107.912 52.2961 108.108 51.5121 108.108C50.8881 108.108 50.3281 107.968 49.8321 107.688C49.3441 107.408 48.9601 107.012 48.6801 106.5C48.4001 105.98 48.2601 105.38 48.2601 104.7C48.2601 104.02 48.3961 103.424 48.6681 102.912C48.9401 102.4 49.3201 102.008 49.8081 101.736C50.3041 101.456 50.8721 101.316 51.5121 101.316C52.1361 101.316 52.6881 101.452 53.1681 101.724C53.6481 101.996 54.0161 102.372 54.2721 102.852C54.5361 103.324 54.6681 103.86 54.6681 104.46ZM53.5401 104.232C53.5401 103.816 53.4481 103.46 53.2641 103.164C53.0801 102.86 52.8281 102.632 52.5081 102.48C52.1961 102.32 51.8481 102.24 51.4641 102.24C50.9121 102.24 50.4401 102.416 50.0481 102.768C49.6641 103.12 49.4441 103.608 49.3881 104.232H53.5401ZM64.0175 101.304C64.5295 101.304 64.9855 101.412 65.3855 101.628C65.7855 101.836 66.1015 102.152 66.3335 102.576C66.5655 103 66.6815 103.516 66.6815 104.124V108H65.6015V104.28C65.6015 103.624 65.4375 103.124 65.1095 102.78C64.7895 102.428 64.3535 102.252 63.8015 102.252C63.2335 102.252 62.7815 102.436 62.4455 102.804C62.1095 103.164 61.9415 103.688 61.9415 104.376V108H60.8615V104.28C60.8615 103.624 60.6975 103.124 60.3695 102.78C60.0495 102.428 59.6135 102.252 59.0615 102.252C58.4935 102.252 58.0415 102.436 57.7055 102.804C57.3695 103.164 57.2015 103.688 57.2015 104.376V108H56.1095V101.424H57.2015V102.372C57.4175 102.028 57.7055 101.764 58.0655 101.58C58.4335 101.396 58.8375 101.304 59.2775 101.304C59.8295 101.304 60.3175 101.428 60.7415 101.676C61.1655 101.924 61.4815 102.288 61.6895 102.768C61.8735 102.304 62.1775 101.944 62.6015 101.688C63.0255 101.432 63.4975 101.304 64.0175 101.304Z" fill="#1F1F1F"/>
</svg>
