<svg width="174" height="71" viewBox="0 0 174 71" fill="none" xmlns="http://www.w3.org/2000/svg">
<g filter="url(#filter0_d_6_2319)">
<rect x="8.3952" width="157.605" height="54.5528" rx="12" fill="#BAD6FF"/>
</g>
<path d="M35.6548 13.8867V16.3827H31.1428V18.3667H34.4708V20.7507H31.1428V25.1667H28.0068V13.8867H35.6548ZM44.1116 23.3267H40.1116L39.5036 25.1667H36.2076L40.3196 13.8867H43.9356L48.0316 25.1667H44.7196L44.1116 23.3267ZM43.3276 20.9267L42.1116 17.2787L40.9116 20.9267H43.3276ZM56.7817 27.0547L55.5337 25.1827C55.1817 25.2467 54.8244 25.2787 54.4617 25.2787C53.4057 25.2787 52.435 25.0334 51.5497 24.5427C50.6644 24.0414 49.9604 23.3534 49.4377 22.4787C48.9257 21.5934 48.6697 20.596 48.6697 19.4867C48.6697 18.3774 48.9257 17.3854 49.4377 16.5107C49.9604 15.6254 50.6644 14.9374 51.5497 14.4467C52.435 13.956 53.4057 13.7107 54.4617 13.7107C55.5284 13.7107 56.499 13.956 57.3737 14.4467C58.259 14.9374 58.9577 15.6254 59.4697 16.5107C59.9817 17.3854 60.2377 18.3774 60.2377 19.4867C60.2377 20.4147 60.051 21.2734 59.6777 22.0627C59.3044 22.8414 58.7924 23.492 58.1417 24.0147L60.5257 27.0547H56.7817ZM51.8697 19.4867C51.8697 20.372 52.099 21.076 52.5577 21.5987C53.0164 22.1107 53.651 22.3667 54.4617 22.3667C55.2617 22.3667 55.891 22.1054 56.3497 21.5827C56.819 21.06 57.0537 20.3614 57.0537 19.4867C57.0537 18.5907 56.819 17.8867 56.3497 17.3747C55.891 16.852 55.2617 16.5907 54.4617 16.5907C53.651 16.5907 53.0164 16.852 52.5577 17.3747C52.099 17.8867 51.8697 18.5907 51.8697 19.4867Z" fill="#1F1F39"/>
<rect x="27.1108" y="33.9028" width="120.174" height="1.79167" rx="0.895837" fill="white"/>
<path d="M27.1108 34.7986C27.1108 34.3039 27.5119 33.9028 28.0066 33.9028H106.76V35.6944H28.0066C27.5119 35.6944 27.1108 35.2934 27.1108 34.7986V34.7986Z" fill="url(#paint0_linear_6_2319)"/>
<path d="M136.247 37.9756C133.966 37.9746 131.723 38.551 129.738 39.6488C127.753 40.7465 126.092 42.3281 124.919 44.2392C123.746 46.1504 123.1 48.3258 123.044 50.5535C122.988 52.7812 123.524 54.985 124.6 56.95L123.046 62.5144C122.995 62.6885 122.993 62.8729 123.042 63.0477C123.09 63.2226 123.186 63.3812 123.32 63.5063C123.42 63.5953 123.537 63.664 123.664 63.7082C123.792 63.7525 123.927 63.7715 124.062 63.7642C124.153 63.7786 124.245 63.7786 124.336 63.7642L130.337 62.1276C130.597 62.0579 130.818 61.8902 130.951 61.6614C131.084 61.4326 131.119 61.1615 131.048 60.9076C130.977 60.6538 130.805 60.438 130.571 60.3078C130.336 60.1776 130.059 60.1436 129.799 60.2133L125.504 61.344L126.671 57.079C126.706 56.953 126.715 56.8216 126.698 56.6922C126.68 56.5628 126.637 56.4381 126.57 56.3252C125.341 54.2453 124.848 51.8273 125.169 49.4462C125.49 47.0651 126.606 44.854 128.344 43.1556C130.083 41.4573 132.346 40.3666 134.784 40.0528C137.221 39.7391 139.697 40.2197 141.826 41.4201C143.956 42.6206 145.62 44.4738 146.562 46.6925C147.503 48.9111 147.669 51.3711 147.033 53.6911C146.397 56.011 144.996 58.0613 143.045 59.5239C141.095 60.9864 138.706 61.7796 136.247 61.7805C135.621 61.781 134.996 61.7313 134.379 61.6317C134.113 61.5886 133.841 61.6501 133.623 61.8025C133.404 61.955 133.256 62.186 133.211 62.445C133.167 62.7041 133.23 62.9696 133.386 63.1835C133.542 63.3973 133.778 63.5419 134.043 63.5857C135.844 63.8814 137.687 63.8091 139.457 63.3735C141.227 62.9379 142.886 62.1484 144.328 61.0549C145.77 59.9614 146.964 58.5876 147.835 57.0204C148.705 55.4532 149.234 53.7266 149.387 51.9498C149.54 50.1729 149.314 48.3844 148.723 46.6972C148.132 45.01 147.189 43.4608 145.955 42.1476C144.72 40.8343 143.219 39.7855 141.549 39.0674C139.878 38.3493 138.072 37.9775 136.247 37.9756V37.9756Z" fill="#007AFF"/>
<path d="M133.288 43.6131C134.156 43.1493 135.091 43.0001 136 43C137.053 42.9999 138.276 43.3458 139.263 44.1553C140.297 45.0026 141 46.3027 141 47.9991C141 49.9486 139.623 51.0069 138.846 51.6036C138.786 51.65 138.729 51.6936 138.677 51.7346C137.828 52.4021 137.5 52.7587 137.5 53.4998C137.5 54.3283 136.829 55 136 55C135.172 55 134.5 54.3283 134.5 53.4998C134.5 51.2315 135.923 50.0833 136.823 49.3754C137.85 48.5686 138 48.3889 138 47.9991C138 47.205 137.703 46.7555 137.362 46.476C136.975 46.1586 136.447 46.0003 136 46.0004C135.41 46.0004 135.004 46.0982 134.702 46.2595C134.415 46.4128 134.112 46.6819 133.819 47.2218C133.424 47.9502 132.514 48.2205 131.785 47.8256C131.057 47.4307 130.787 46.5201 131.182 45.7918C131.709 44.819 132.405 44.0849 133.288 43.6131Z" fill="#007AFF"/>
<path d="M136 60C137.105 60 138 59.1046 138 58.0001C138 56.8954 137.105 56 136 56C134.895 56 134 56.8954 134 58.0001C134 59.1046 134.895 60 136 60Z" fill="#007AFF"/>
<defs>
<filter id="filter0_d_6_2319" x="0.395203" y="0" width="173.605" height="70.5528" filterUnits="userSpaceOnUse" color-interpolation-filters="sRGB">
<feFlood flood-opacity="0" result="BackgroundImageFix"/>
<feColorMatrix in="SourceAlpha" type="matrix" values="0 0 0 0 0 0 0 0 0 0 0 0 0 0 0 0 0 0 127 0" result="hardAlpha"/>
<feMorphology radius="4" operator="erode" in="SourceAlpha" result="effect1_dropShadow_6_2319"/>
<feOffset dy="8"/>
<feGaussianBlur stdDeviation="6"/>
<feComposite in2="hardAlpha" operator="out"/>
<feColorMatrix type="matrix" values="0 0 0 0 0.721569 0 0 0 0 0.721569 0 0 0 0 0.823529 0 0 0 0.2 0"/>
<feBlend mode="normal" in2="BackgroundImageFix" result="effect1_dropShadow_6_2319"/>
<feBlend mode="normal" in="SourceGraphic" in2="effect1_dropShadow_6_2319" result="shape"/>
</filter>
<linearGradient id="paint0_linear_6_2319" x1="66.9353" y1="33.9028" x2="27.1108" y2="33.9028" gradientUnits="userSpaceOnUse">
<stop stop-color="#3D5CFF"/>
<stop offset="1" stop-color="#3D5CFF" stop-opacity="0.5"/>
</linearGradient>
</defs>
</svg>
