<svg width="85" height="113" viewBox="0 0 85 113" fill="none" xmlns="http://www.w3.org/2000/svg">
<mask id="mask0_6_2253" style="mask-type:alpha" maskUnits="userSpaceOnUse" x="0" y="0" width="85" height="85">
<rect width="85" height="85" fill="white"/>
</mask>
<g mask="url(#mask0_6_2253)">
<rect x="0.5" y="0.5" width="84" height="84" rx="15.5" fill="white" stroke="#F1F1F1"/>
</g>
<path d="M57.5 46.625C58.1674 46.625 58.7084 46.084 58.7084 45.4166C58.7084 44.7493 58.1674 44.2083 57.5 44.2083C56.8327 44.2083 56.2917 44.7493 56.2917 45.4166C56.2917 46.084 56.8327 46.625 57.5 46.625Z" fill="#007AFF"/>
<path d="M26.0833 40.4867V55.0833C26.0833 56.3652 26.5925 57.5946 27.499 58.501C28.4054 59.4075 29.6348 59.9167 30.9167 59.9167H59.9167C61.1985 59.9167 62.4279 59.4075 63.3343 58.501C64.2408 57.5946 64.75 56.3652 64.75 55.0833V35.75C64.75 34.4681 64.2408 33.2388 63.3343 32.3323C62.4279 31.4259 61.1985 30.9167 59.9167 30.9167H40.4987C40.3059 29.3857 39.7494 27.9231 38.8756 26.6512C38.0019 25.3793 36.8364 24.3351 35.4765 23.6058C34.1166 22.8765 32.6019 22.4833 31.059 22.4592C29.5161 22.4351 27.9899 22.7806 26.6078 23.4671C25.2258 24.1535 24.0282 25.1608 23.1151 26.4047C22.2021 27.6487 21.6 29.0931 21.3594 30.6173C21.1188 32.1416 21.2466 33.7012 21.7321 35.166C22.2175 36.6307 23.0466 37.9579 24.15 39.0367C24.7357 39.5937 25.3846 40.0804 26.0833 40.4867ZM29.4667 41.695H29.7929C30.165 41.7513 30.5404 41.7836 30.9167 41.7917C31.2306 41.81 31.5453 41.81 31.8592 41.7917H31.98H32.1854L32.7292 41.7071L32.9829 41.6467H33.1642L33.5992 41.5379L33.9979 41.405H34.1308L34.445 41.2842C34.6153 41.2241 34.7809 41.1514 34.9404 41.0667H35.0492L35.2546 40.97L35.75 40.6921L35.9796 40.5592C36.1487 40.4504 36.3179 40.3417 36.475 40.2208L36.6804 40.0638C36.8497 39.9411 37.0112 39.8079 37.1637 39.665L37.345 39.5079C37.5021 39.3629 37.6592 39.2179 37.8042 39.0608L37.9492 38.9038C38.0942 38.7467 38.2271 38.6017 38.36 38.4325H56.2917C56.6121 38.4325 56.9195 38.5598 57.1461 38.7864C57.3727 39.013 57.5 39.3204 57.5 39.6408V40.8492C56.2181 40.8492 54.9887 41.3584 54.0823 42.2648C53.1759 43.1713 52.6667 44.4006 52.6667 45.6825C52.6667 46.9644 53.1759 48.1938 54.0823 49.1002C54.9887 50.0066 56.2181 50.5158 57.5 50.5158V51.7242C57.5 52.0446 57.3727 52.352 57.1461 52.5786C56.9195 52.8052 56.6121 52.9325 56.2917 52.9325H28.5V41.4896H28.6812C28.9471 41.5863 29.2008 41.6346 29.4667 41.6708V41.695ZM55.0833 45.4167C55.0833 44.7757 55.3379 44.1611 55.7911 43.7078C56.2444 43.2546 56.859 43 57.5 43H62.3333V47.8333H57.5C56.859 47.8333 56.2444 47.5787 55.7911 47.1255C55.3379 46.6723 55.0833 46.0576 55.0833 45.4167ZM62.3333 55.0833C62.3333 55.7243 62.0787 56.339 61.6255 56.7922C61.1723 57.2454 60.5576 57.5 59.9167 57.5H30.9167C30.2757 57.5 29.661 57.2454 29.2078 56.7922C28.7546 56.339 28.5 55.7243 28.5 55.0833H56.2917C57.2531 55.0833 58.1751 54.7014 58.8549 54.0216C59.5347 53.3418 59.9167 52.4198 59.9167 51.4583V50.25H62.3333V55.0833ZM62.3333 35.75V40.5833H59.9167V39.375C59.9167 38.4136 59.5347 37.4916 58.8549 36.8117C58.1751 36.1319 57.2531 35.75 56.2917 35.75H39.8704C39.9414 35.5889 40.0019 35.4235 40.0517 35.2546C40.0812 35.1881 40.1054 35.1194 40.1242 35.0492C40.1242 34.9042 40.2087 34.7471 40.2571 34.6021L40.3658 34.155L40.4383 33.7442L40.5108 33.3333H59.9167C60.5576 33.3333 61.1723 33.588 61.6255 34.0412C62.0787 34.4944 62.3333 35.1091 62.3333 35.75ZM26.4096 26.4458C27.6887 25.4234 29.2791 24.8691 30.9167 24.875C32.6287 24.8767 34.2849 25.4843 35.592 26.5901C36.899 27.6959 37.7726 29.2286 38.0579 30.9167C38.1311 31.3153 38.1675 31.7198 38.1667 32.125C38.1571 33.4005 37.8111 34.6509 37.1637 35.75C37.0328 35.9766 36.8875 36.1945 36.7287 36.4025L36.62 36.5475C36.4517 36.764 36.2701 36.9698 36.0762 37.1638C35.8779 37.3613 35.6681 37.5469 35.4479 37.7196L35.2546 37.8646C35.093 37.9884 34.9235 38.1014 34.7471 38.2029L34.5175 38.3479C34.2983 38.4767 34.0724 38.5936 33.8408 38.6983H33.7683C33.5025 38.8071 33.2367 38.8917 32.9708 38.9763H32.7171L32.0887 39.1092H31.835C31.5349 39.2175 31.2282 39.3063 30.9167 39.375C30.471 39.3724 30.0263 39.332 29.5875 39.2542C29.1767 39.1669 28.7729 39.0498 28.3792 38.9038C27.9609 38.7494 27.5566 38.5594 27.1708 38.3358C26.8102 38.1178 26.4705 37.867 26.1558 37.5867L25.8417 37.3208C25.1508 36.6437 24.6025 35.8351 24.2289 34.9428C23.8554 34.0504 23.6642 33.0924 23.6667 32.125C23.6666 31.0329 23.9133 29.9549 24.3882 28.9715C24.8632 27.9881 25.5542 27.1248 26.4096 26.4458Z" fill="#3C3B5C"/>
<path d="M27.8958 33.3333H29.7083V35.1458C29.7083 35.4663 29.8356 35.7736 30.0622 36.0002C30.2889 36.2268 30.5962 36.3541 30.9167 36.3541C31.2371 36.3541 31.5445 36.2268 31.7711 36.0002C31.9977 35.7736 32.125 35.4663 32.125 35.1458V33.3333H33.9375C34.258 33.3333 34.5653 33.206 34.7919 32.9794C35.0185 32.7528 35.1458 32.4454 35.1458 32.125C35.1458 31.8045 35.0185 31.4972 34.7919 31.2706C34.5653 31.044 34.258 30.9166 33.9375 30.9166H32.125V29.1041C32.125 28.7837 31.9977 28.4763 31.7711 28.2497C31.5445 28.0231 31.2371 27.8958 30.9167 27.8958C30.5962 27.8958 30.2889 28.0231 30.0622 28.2497C29.8356 28.4763 29.7083 28.7837 29.7083 29.1041V30.9166H27.8958C27.5754 30.9166 27.268 31.044 27.0414 31.2706C26.8148 31.4972 26.6875 31.8045 26.6875 32.125C26.6875 32.4454 26.8148 32.7528 27.0414 32.9794C27.268 33.206 27.5754 33.3333 27.8958 33.3333Z" fill="#007AFF"/>
<path d="M19.3676 100.524V103.32H22.4156V104.22H19.3676V107.1H22.7756V108H18.2756V99.624H22.7756V100.524H19.3676ZM28.9879 103.14V104.064H24.1999V103.14H28.9879ZM41.5493 99.636L39.1253 108H37.9013L35.9573 101.268L33.9413 108L32.7293 108.012L30.3893 99.636H31.5533L33.3773 106.728L35.3933 99.636H36.6173L38.5373 106.704L40.3733 99.636H41.5493ZM42.3363 104.688C42.3363 104.016 42.4723 103.428 42.7443 102.924C43.0163 102.412 43.3883 102.016 43.8603 101.736C44.3403 101.456 44.8723 101.316 45.4563 101.316C46.0323 101.316 46.5323 101.44 46.9563 101.688C47.3803 101.936 47.6963 102.248 47.9043 102.624V101.424H49.0083V108H47.9043V106.776C47.6883 107.16 47.3643 107.48 46.9323 107.736C46.5083 107.984 46.0123 108.108 45.4443 108.108C44.8603 108.108 44.3323 107.964 43.8603 107.676C43.3883 107.388 43.0163 106.984 42.7443 106.464C42.4723 105.944 42.3363 105.352 42.3363 104.688ZM47.9043 104.7C47.9043 104.204 47.8043 103.772 47.6043 103.404C47.4043 103.036 47.1323 102.756 46.7883 102.564C46.4523 102.364 46.0803 102.264 45.6723 102.264C45.2643 102.264 44.8923 102.36 44.5563 102.552C44.2203 102.744 43.9523 103.024 43.7523 103.392C43.5523 103.76 43.4523 104.192 43.4523 104.688C43.4523 105.192 43.5523 105.632 43.7523 106.008C43.9523 106.376 44.2203 106.66 44.5563 106.86C44.8923 107.052 45.2643 107.148 45.6723 107.148C46.0803 107.148 46.4523 107.052 46.7883 106.86C47.1323 106.66 47.4043 106.376 47.6043 106.008C47.8043 105.632 47.9043 105.196 47.9043 104.7ZM51.9457 99.12V108H50.8537V99.12H51.9457ZM54.8988 99.12V108H53.8068V99.12H54.8988ZM62.7599 104.46C62.7599 104.668 62.7479 104.888 62.7239 105.12H57.4679C57.5079 105.768 57.7279 106.276 58.1279 106.644C58.5359 107.004 59.0279 107.184 59.6039 107.184C60.0759 107.184 60.4679 107.076 60.7799 106.86C61.0999 106.636 61.3239 106.34 61.4519 105.972H62.6279C62.4519 106.604 62.0999 107.12 61.5719 107.52C61.0439 107.912 60.3879 108.108 59.6039 108.108C58.9799 108.108 58.4199 107.968 57.9239 107.688C57.4359 107.408 57.0519 107.012 56.7719 106.5C56.4919 105.98 56.3519 105.38 56.3519 104.7C56.3519 104.02 56.4879 103.424 56.7599 102.912C57.0319 102.4 57.4119 102.008 57.8999 101.736C58.3959 101.456 58.9639 101.316 59.6039 101.316C60.2279 101.316 60.7799 101.452 61.2599 101.724C61.7399 101.996 62.1079 102.372 62.3639 102.852C62.6279 103.324 62.7599 103.86 62.7599 104.46ZM61.6319 104.232C61.6319 103.816 61.5399 103.46 61.3559 103.164C61.1719 102.86 60.9199 102.632 60.5999 102.48C60.2879 102.32 59.9399 102.24 59.5559 102.24C59.0039 102.24 58.5319 102.416 58.1399 102.768C57.7559 103.12 57.5359 103.608 57.4799 104.232H61.6319ZM65.5333 102.324V106.2C65.5333 106.52 65.6013 106.748 65.7373 106.884C65.8733 107.012 66.1093 107.076 66.4453 107.076H67.2493V108H66.2653C65.6573 108 65.2013 107.86 64.8973 107.58C64.5933 107.3 64.4413 106.84 64.4413 106.2V102.324H63.5893V101.424H64.4413V99.768H65.5333V101.424H67.2493V102.324H65.5333Z" fill="#1F1F1F"/>
</svg>
