<svg width="97" height="97" viewBox="0 0 97 97" fill="none" xmlns="http://www.w3.org/2000/svg">
<circle opacity="0.56" cx="48.2568" cy="48.2568" r="48.2568" fill="#F5ECFF"/>
<circle opacity="0.8" cx="47.9295" cy="38.5068" r="35.5" fill="#F8F2FF"/>
<path d="M65.1349 44.655L57.6382 44.1769L60.0765 50.6732C62.209 49.6675 64.1761 48.3814 65.9366 46.8562C65.5068 45.6031 65.1349 44.655 65.1349 44.655Z" fill="#DA5742"/>
<path d="M32.6027 47.0705C34.3715 48.5627 36.3469 49.8241 38.4876 50.7969L41.0333 44.0037L33.5367 44.4819C33.5284 44.4901 33.0821 45.6361 32.6027 47.0705Z" fill="#DA5742"/>
<path d="M65.1349 44.655L57.6382 44.1769L58.4813 46.3863L65.9201 46.848C65.5151 45.6856 65.1349 44.655 65.1349 44.655Z" fill="#C43D28"/>
<path d="M33.611 44.2428L41.1076 43.7646L40.2646 45.9741L32.7101 46.7078C33.1151 45.5536 33.611 44.2428 33.611 44.2428Z" fill="#C43D28"/>
<path d="M58.1095 34.3747C53.109 31.5057 45.4057 31.9344 40.7936 34.0037C37.5206 35.4876 33.9334 40.0713 32.611 45.4465H38.4628L37.4958 50.327C40.992 52.1077 44.9511 53.1135 49.1416 53.1135C53.3569 53.1135 57.3243 52.0995 60.8288 50.3023L59.8039 46.073L65.7218 45.5454C65.7136 45.5454 64.3498 37.9609 58.1095 34.3747Z" fill="#3D5CFF"/>
<path opacity="0.4672" d="M42.1325 33.5502C41.992 35.8998 41.8515 38.2493 41.7192 40.5989C41.5787 42.9814 41.4465 45.3557 41.306 47.7383C41.2316 49.0656 41.1489 50.3929 41.0745 51.7119C41.0663 51.8686 41.3142 51.8686 41.3225 51.7119C41.463 49.3376 41.6035 46.9716 41.7358 44.5973C41.8763 42.223 42.0085 39.8487 42.149 37.4744C42.2234 36.1636 42.3061 34.8528 42.3805 33.5419C42.3887 33.3853 42.1408 33.3853 42.1325 33.5502Z" fill="#CDECFE"/>
<path opacity="0.4672" d="M45.1493 32.7752C45.0997 35.3556 45.0501 37.936 44.9923 40.5165C44.9427 43.0969 44.8931 45.6855 44.8435 48.2659C44.8187 49.7169 44.7857 51.1761 44.7609 52.627C44.7609 52.7837 45.0088 52.7837 45.0088 52.627C45.0584 50.0384 45.108 47.4497 45.1659 44.8611C45.2155 42.2807 45.265 39.7003 45.3146 37.1199C45.3394 35.6772 45.3725 34.2262 45.3973 32.7835C45.3973 32.6104 45.1493 32.6104 45.1493 32.7752Z" fill="#CDECFE"/>
<path opacity="0.4672" d="M48.7199 32.5527C48.7613 35.199 48.8109 37.8454 48.8522 40.4917C48.8935 43.1381 48.9431 45.7844 48.9844 48.4308C49.0092 49.923 49.034 51.4234 49.0588 52.9156C49.0588 53.0722 49.3068 53.0722 49.3068 52.9156C49.2655 50.2692 49.2159 47.6229 49.1745 44.9765C49.1332 42.3302 49.0836 39.6838 49.0423 37.0374C49.0175 35.5453 48.9927 34.0448 48.9679 32.5527C48.9679 32.396 48.7199 32.396 48.7199 32.5527Z" fill="#CDECFE"/>
<path opacity="0.4672" d="M52.365 32.5444C52.4311 33.7893 52.4973 35.0342 52.5716 36.2873C52.646 37.5898 52.7369 38.8924 52.8196 40.195C52.9105 41.514 53.0014 42.8248 53.1089 44.1439C53.2081 45.4465 53.3155 46.7573 53.4312 48.0599C53.5387 49.313 53.6544 50.5661 53.7784 51.8192C53.7949 51.9676 53.8114 52.116 53.8197 52.2643C53.8362 52.421 54.0842 52.421 54.0677 52.2643C53.9437 51.0195 53.828 49.7746 53.7205 48.538C53.6048 47.2354 53.4974 45.9329 53.3982 44.6385C53.299 43.3195 53.1998 42.0087 53.1089 40.6896C53.018 39.3788 52.9353 38.0762 52.8527 36.7654C52.7783 35.5123 52.7039 34.251 52.6378 32.9979C52.6295 32.8495 52.6212 32.7011 52.613 32.5527C52.6047 32.3878 52.3567 32.3878 52.365 32.5444Z" fill="#CDECFE"/>
<path opacity="0.4672" d="M55.6794 33.4843C56.0513 35.7514 56.4232 38.0103 56.7952 40.2774C57.1754 42.5775 57.5556 44.8776 57.9358 47.1859C58.1424 48.439 58.3491 49.7004 58.5557 50.9535C58.5805 51.1101 58.8202 51.0442 58.7954 50.8876C58.4234 48.6204 58.0515 46.3615 57.6796 44.0944C57.2994 41.7943 56.9192 39.4942 56.539 37.1859C56.3323 35.9327 56.1257 34.6714 55.9191 33.4183C55.886 33.2617 55.6463 33.3276 55.6794 33.4843Z" fill="#CDECFE"/>
<path opacity="0.4672" d="M38.9835 35.1908C38.686 36.5099 38.3884 37.8289 38.0909 39.148C37.7933 40.4505 37.504 41.7613 37.223 43.0639C37.0577 43.8141 36.9007 44.5643 36.7436 45.3228C36.7106 45.4794 36.9503 45.5454 36.9833 45.3887C37.2561 44.0614 37.5454 42.7424 37.8347 41.4151C38.1239 40.1125 38.4215 38.8017 38.7108 37.4992C38.8843 36.7489 39.0497 35.9987 39.215 35.2485C39.2563 35.1001 39.0249 35.0342 38.9835 35.1908Z" fill="#CDECFE"/>
<path opacity="0.4672" d="M59.3409 35.4216C59.7873 36.7489 60.2171 38.0845 60.6469 39.42C61.0684 40.7556 61.4982 42.0994 61.928 43.4349C62.1677 44.1851 62.4156 44.9353 62.6719 45.6773C62.7215 45.8257 62.9612 45.7597 62.9116 45.6113C62.4652 44.284 62.0354 42.9485 61.6056 41.613C61.1841 40.2774 60.7543 38.9336 60.3245 37.5981C60.0848 36.8479 59.8369 36.0976 59.5806 35.3557C59.531 35.199 59.2914 35.265 59.3409 35.4216Z" fill="#CDECFE"/>
<path d="M38.5537 45.4382L40.058 39.9146L36.5783 45.4464L38.5537 45.4382Z" fill="#224BF4"/>
<path d="M57.6382 39.2222L59.8038 46.073L61.5643 45.9246L57.6382 39.2222Z" fill="#224BF4"/>
<path d="M38.562 45.5289C38.5538 45.5289 38.5455 45.5289 38.5372 45.5289C38.4959 45.5206 38.4711 45.4712 38.4794 45.43L40.1324 39.3128C40.1407 39.2716 40.1903 39.2469 40.2316 39.2551C40.2729 39.2634 40.2977 39.3128 40.2895 39.354L38.6364 45.4712C38.6281 45.5042 38.5951 45.5289 38.562 45.5289Z" fill="#1F1F39"/>
<path d="M59.7211 46.1307C59.688 46.1307 59.6549 46.106 59.6467 46.073L57.5308 39.2221C57.5142 39.1809 57.539 39.1397 57.5803 39.1232C57.6217 39.1067 57.663 39.1315 57.6795 39.1727L59.8037 46.0235C59.8202 46.0647 59.7955 46.106 59.7541 46.1225C59.7376 46.1225 59.7293 46.1307 59.7211 46.1307Z" fill="#1F1F39"/>
<path d="M46.4802 30.1124C46.4802 30.1124 45.9843 30.1124 45.2404 29.9475C44.4965 29.7827 44.4139 29.3705 44.4139 29.3705C44.4139 29.3705 44.1659 29.8651 42.6781 29.7002C41.1904 29.5353 40.6945 28.1338 40.6945 28.1338C40.6945 28.1338 38.8761 27.8041 38.5455 26.8148C38.2149 25.8255 38.2975 25.4133 38.2975 25.4133C38.2975 25.4133 37.0577 24.3416 37.1404 23.1874C37.223 22.0332 37.6363 21.7859 37.6363 21.7859C37.6363 21.7859 36.9751 21.2088 37.1404 20.7142C37.3057 20.2195 37.6363 20.1371 37.6363 20.1371C37.6363 20.1371 35.9006 18.4058 36.4792 16.5097C37.0577 14.6135 38.4628 14.6135 38.4628 14.6135C38.4628 14.6135 38.2149 13.954 38.9588 13.5418C39.7026 13.1296 40.0332 13.212 40.0332 13.212C40.0332 13.212 39.8679 11.151 40.9424 10.6564C42.0169 10.1617 42.9261 10.409 42.9261 10.409C42.9261 10.409 42.8434 9.25486 43.5873 9.17241C44.3312 9.08997 44.6618 9.58462 44.6618 9.58462C44.6618 9.58462 44.6618 9.25486 45.323 9.17241C45.9843 9.08997 46.0669 9.3373 46.0669 9.3373C46.0669 9.3373 46.2322 7.68848 47.9679 7.68848C49.7037 7.68848 50.2822 8.67777 50.2822 8.67777C50.2822 8.67777 50.6955 7.9358 51.6873 8.10068C52.6792 8.26556 52.6792 9.17241 52.6792 9.17241C52.6792 9.17241 53.5057 8.26556 55.2414 8.76021C56.9771 9.25486 57.473 12.3052 57.473 12.3052C57.473 12.3052 58.0516 12.1403 58.5475 12.3876C59.0435 12.6349 58.9608 13.5418 58.9608 13.5418C58.9608 13.5418 60.5312 13.6242 60.8618 14.9433C61.1924 16.2623 60.8618 16.757 60.8618 16.757C60.8618 16.757 62.2669 18.076 61.8537 20.0546C61.4404 22.0332 60.6139 22.6927 60.6139 22.6927C60.6139 22.6927 60.9445 23.682 60.6139 24.424C60.2832 25.166 59.622 25.166 59.622 25.166C59.622 25.166 59.87 26.3201 59.2914 26.7323C58.7128 27.1446 58.1343 26.9797 58.1343 26.9797C58.1343 26.9797 57.5557 28.9583 55.4894 29.6178C53.423 30.2773 51.3567 29.3705 51.3567 29.3705L46.4802 30.1124Z" fill="#F99A3D"/>
<path d="M40.6612 23.9128C40.6034 22.3465 41.8597 21.8188 42.7772 22.1981C43.0417 22.3052 43.2566 22.4289 43.4219 22.5526C43.4384 21.8271 44.2649 19.5599 45.0915 18.818C45.8767 18.1172 47.3231 17.4989 48.4802 18.4058C49.6374 19.3126 50.1333 20.7966 50.8772 20.3844C51.6211 19.9721 52.4476 19.1477 53.2741 19.8073C53.894 20.3019 54.0015 21.8271 54.018 22.5526C54.1833 22.4289 54.3982 22.3135 54.6627 22.1981C55.5719 21.8188 56.8365 22.3465 56.7786 23.9128C56.8199 24.5971 56.5141 25.3391 56.0017 25.6606C55.2661 26.1305 53.613 25.9903 53.613 25.9903C53.613 25.9903 53.4725 26.6911 53.1005 27.3918C52.522 28.4636 51.3648 29.3704 51.3648 29.3704V31.3243L51.5467 33.9871C51.5467 33.9871 51.3566 34.0861 51.0259 34.2015C50.8606 34.2674 50.6292 34.3499 50.2903 34.4158C49.8523 34.5148 49.3233 34.5889 48.7282 34.5889C48.1331 34.5972 47.6041 34.523 47.166 34.4158C46.8272 34.3499 46.5957 34.2757 46.4304 34.2015C46.0998 34.0861 45.9097 33.9871 45.9097 33.9871L46.0916 31.3243V29.3704C46.0916 29.3704 44.9344 28.4636 44.3558 27.3918C43.9756 26.6911 43.9178 26.2377 43.9178 26.0068C43.4549 26.0481 42.1821 26.1223 41.4465 25.6606C40.9257 25.3391 40.6199 24.5971 40.6612 23.9128Z" fill="#DA5742"/>
<path d="M46.0752 29.3622V31.3326L46.0091 32.3549C46.7612 32.2971 47.6787 32.1323 48.7118 31.7613C49.7615 31.382 50.6542 30.8462 51.3567 30.3433V29.3705C49.869 30.2773 46.7282 29.9476 46.0752 29.3622Z" fill="#C43D28"/>
<path d="M48.7531 30.0217C47.5629 30.0217 46.4058 29.7744 46.0173 29.4199C45.9843 29.3869 45.976 29.3292 46.0091 29.288C46.0421 29.2468 46.1 29.2468 46.1413 29.2798C46.5298 29.6343 47.8687 29.8816 49.1168 29.8239C49.1664 29.8239 49.2077 29.8569 49.2077 29.9063C49.2077 29.9558 49.1747 29.997 49.1251 29.997C49.0011 30.0217 48.8771 30.0217 48.7531 30.0217Z" fill="#1F1F39"/>
<path d="M54.6628 22.1981C54.4479 22.2888 54.2661 22.3877 54.109 22.4866C54.0677 23.0884 54.1834 22.7752 53.9189 24.5889C53.8611 24.9599 53.6545 25.6606 53.5553 26.0233C54.1173 26.0646 55.3488 26.0728 56.0018 25.6606C56.5143 25.3391 56.8118 24.5971 56.7787 23.9129C56.8283 22.3465 55.572 21.8189 54.6628 22.1981Z" fill="#C43D28"/>
<path d="M44.1329 26.9633C44.1907 27.0952 44.2569 27.2353 44.3395 27.3919C44.3478 27.4084 44.3643 27.4332 44.3726 27.4497C44.2899 27.2848 44.2073 27.1199 44.1329 26.9633Z" fill="#C43D28"/>
<path d="M43.3061 22.4784C43.1574 22.3795 42.9838 22.2888 42.7689 22.1981C41.8597 21.8189 40.5951 22.3465 40.653 23.9129C40.6117 24.5971 40.9175 25.3391 41.4299 25.6606C42.1325 26.1058 43.3309 26.0563 43.8351 26.0151C43.6037 24.9846 43.4219 23.5419 43.3061 22.4784Z" fill="#C43D28"/>
<path d="M43.5956 25.3638C43.546 25.3638 43.5047 25.3226 43.5047 25.2731C43.5047 25.2731 43.4964 24.8609 43.0335 24.1766C42.5707 23.4924 41.7028 23.2533 41.6945 23.2451C41.645 23.2286 41.6202 23.1791 41.6284 23.1379C41.645 23.0884 41.6945 23.0637 41.7359 23.0719C41.7772 23.0802 42.6864 23.3275 43.1823 24.0777C43.6782 24.8197 43.6782 25.2566 43.6782 25.2731C43.6865 25.3226 43.6452 25.3638 43.5956 25.3638Z" fill="#1F1F39"/>
<path d="M53.9518 25.3638C53.9022 25.3638 53.8609 25.3226 53.8609 25.2731C53.8609 25.2566 53.8692 24.8114 54.3568 24.0777C54.8527 23.3357 55.7619 23.0884 55.8032 23.0719C55.8528 23.0554 55.9024 23.0884 55.9107 23.1379C55.9272 23.1873 55.8942 23.2368 55.8446 23.245C55.8363 23.245 54.9602 23.4841 54.5056 24.1766C54.0427 24.8609 54.0345 25.2731 54.0345 25.2731C54.0427 25.3226 54.0014 25.3638 53.9518 25.3638Z" fill="#1F1F39"/>
<path d="M46.0668 22.5278C46.0668 22.5278 46.1329 21.8683 46.6123 21.8683C47.0917 21.8683 47.1578 22.5278 47.1578 22.5278" fill="white"/>
<path d="M50.2574 22.5278C50.2574 22.5278 50.3235 21.8683 50.8029 21.8683C51.2823 21.8683 51.3484 22.5278 51.3484 22.5278" fill="white"/>
<path d="M48.8935 23.2698C48.8274 23.4182 48.7696 23.5666 48.7117 23.7068C48.6538 23.8552 48.6043 24.0036 48.5877 24.1437C48.5795 24.2179 48.5877 24.2839 48.6208 24.3251C48.6208 24.3333 48.6291 24.3333 48.6291 24.3416L48.6456 24.3581C48.6538 24.3663 48.6704 24.3745 48.6869 24.3828C48.7117 24.3993 48.7448 24.4158 48.7778 24.4158C48.9101 24.4405 49.0671 24.3828 49.2076 24.3168C49.158 24.3828 49.0919 24.4323 49.0175 24.4735C48.9431 24.5147 48.8522 24.5394 48.7613 24.5312C48.7117 24.5229 48.6704 24.5147 48.6291 24.49C48.6043 24.4817 48.5877 24.4652 48.5712 24.4487L48.5464 24.424C48.5381 24.4158 48.5299 24.4075 48.5216 24.391C48.4555 24.3003 48.4555 24.2014 48.4637 24.119C48.472 24.0365 48.4968 23.9541 48.5299 23.8717C48.5547 23.7975 48.596 23.7233 48.6291 23.6491C48.6952 23.5254 48.7861 23.3935 48.8935 23.2698Z" fill="#1F1F39"/>
<path d="M48.1332 25.6771C48.1332 25.6771 48.4473 26.4603 49.3234 26.3367C50.0342 26.2377 50.1169 25.4133 50.1169 25.4133" fill="white"/>
<path d="M46.6867 24.3416C46.9834 24.3416 47.2239 24.0463 47.2239 23.682C47.2239 23.3178 46.9834 23.0225 46.6867 23.0225C46.3899 23.0225 46.1494 23.3178 46.1494 23.682C46.1494 24.0463 46.3899 24.3416 46.6867 24.3416Z" fill="#1F1F39"/>
<path d="M50.8194 24.3416C51.1161 24.3416 51.3566 24.0463 51.3566 23.682C51.3566 23.3178 51.1161 23.0225 50.8194 23.0225C50.5226 23.0225 50.2821 23.3178 50.2821 23.682C50.2821 24.0463 50.5226 24.3416 50.8194 24.3416Z" fill="#1F1F39"/>
<path d="M53.5972 25.1834C53.6352 24.7388 53.0393 24.3251 52.266 24.2593C51.4928 24.1934 50.8352 24.5005 50.7971 24.9451C50.7591 25.3897 51.3551 25.8035 52.1283 25.8693C52.9015 25.9351 53.5592 25.628 53.5972 25.1834Z" fill="#C43D28"/>
<path d="M46.9023 25.1836C46.9404 24.739 46.3444 24.3252 45.5712 24.2594C44.7979 24.1936 44.1403 24.5006 44.1022 24.9452C44.0642 25.3898 44.6602 25.8036 45.4334 25.8694C46.2066 25.9352 46.8643 25.6282 46.9023 25.1836Z" fill="#C43D28"/>
<path d="M27.2662 30.2464C27.2662 30.2464 25.445 28.3551 22.6694 29.7998C19.8937 31.2358 18.7554 35.246 17.3632 37.3912C15.9798 39.5365 15.4107 40.0793 14.3337 40.8498C13.2567 41.6204 11.9083 41.6379 11.9083 41.6379C11.9083 41.6379 14.3074 47.662 23.5537 48.7215C32.8 49.7809 37.7559 46.655 39.6297 45.3767C41.5035 44.1071 42.5542 42.0669 42.5542 42.0669C42.5542 42.0669 38.2025 41.1038 36.9679 37.1023C35.7333 33.0921 33.9908 30.2726 31.294 29.8261C28.5972 29.3795 27.2662 30.2464 27.2662 30.2464Z" fill="#1F1F39"/>
<path d="M43.9114 62.3545L35.9697 61.8467L38.5527 68.7464C40.8117 67.6782 42.8957 66.3122 44.7607 64.6924C44.3054 63.3615 43.9114 62.3545 43.9114 62.3545Z" fill="#F9D2DD"/>
<path d="M9.44788 64.92C11.3217 66.5048 13.4143 67.8445 15.6821 68.8777L18.379 61.6628L10.4373 62.1706C10.4286 62.1794 9.95572 63.3965 9.44788 64.92Z" fill="#F9D2DD"/>
<path d="M43.9114 62.3545L35.9697 61.8467L36.8628 64.1933L44.7432 64.6836C44.3141 63.449 43.9114 62.3545 43.9114 62.3545Z" fill="#F9ACC0"/>
<path d="M10.5161 61.9167L18.4578 61.4089L17.5647 63.7555L9.56174 64.5348C9.99078 63.3089 10.5161 61.9167 10.5161 61.9167Z" fill="#F9ACC0"/>
<path d="M36.4776 51.4445C31.189 48.3887 23.0196 48.844 18.1338 51.0418C14.6664 52.6091 10.8576 57.4774 9.45663 63.1863H15.6558L14.6314 68.3698C18.3352 70.2611 22.5205 71.3293 26.9598 71.3293C31.4253 71.3293 35.6282 70.2524 39.3407 68.3523L38.255 63.8605L44.5243 63.3001C44.5243 63.3089 43.0796 55.2534 36.4776 51.4445Z" fill="#3D5CFF"/>
<path d="M15.7522 63.1863L17.3458 57.3198L13.6595 63.195L15.7522 63.1863Z" fill="#224BF4"/>
<path d="M35.9697 56.5844L38.2638 63.8606L40.1288 63.703L35.9697 56.5844Z" fill="#224BF4"/>
<path d="M15.7609 63.2826C15.7522 63.2826 15.7434 63.2826 15.7347 63.2826C15.6909 63.2739 15.6646 63.2214 15.6734 63.1776L17.4246 56.6806C17.4333 56.6369 17.4859 56.6106 17.5296 56.6194C17.5734 56.6281 17.5997 56.6806 17.5909 56.7244L15.8397 63.2214C15.831 63.2564 15.796 63.2826 15.7609 63.2826Z" fill="#1F1F39"/>
<path d="M38.1762 63.9218C38.1412 63.9218 38.1062 63.8955 38.0974 63.8605L35.8559 56.5843C35.8384 56.5405 35.8647 56.4968 35.9084 56.4792C35.9522 56.4617 35.996 56.488 36.0135 56.5318L38.255 63.808C38.2725 63.8517 38.2462 63.8955 38.2025 63.913C38.1937 63.913 38.185 63.9218 38.1762 63.9218Z" fill="#1F1F39"/>
<path d="M35.9259 40.0618C35.9872 38.3982 34.6563 37.8378 33.6844 38.2405C33.4042 38.3544 33.1765 38.4857 33.0014 38.6171C33.0014 37.864 32.9226 37.1723 32.9226 37.1723L31.1889 37.1548L31.0838 36.1128L30.8737 37.1548L28.2206 37.1285L28.1068 36.1128L27.9229 37.1198L23.545 37.076L23.3698 35.2548L23.1247 37.076L21.7938 37.0672C21.7938 37.0672 21.7763 37.794 21.7763 38.6083C21.6012 38.4769 21.3735 38.3544 21.0933 38.2318C20.1301 37.829 18.7905 38.3894 18.8517 40.053C18.808 40.7798 19.132 41.5678 19.6748 41.9093C20.4541 42.4084 21.7237 42.3296 22.2053 42.277C22.2316 42.5222 22.3541 43.0038 22.7569 43.748C23.3698 44.8863 24.5957 45.8495 24.5957 45.8495V47.9246L24.4031 50.7528C24.4031 50.7528 24.6044 50.8579 24.9547 50.9805C25.1298 51.0505 25.375 51.1381 25.7339 51.2081C26.198 51.3132 26.7584 51.392 27.3888 51.392C28.0192 51.4007 28.5797 51.3219 29.0437 51.2081C29.4027 51.1381 29.6479 51.0593 29.823 50.9805C30.1732 50.8579 30.3746 50.7528 30.3746 50.7528L30.182 47.9246V45.8582C30.182 45.8582 31.4078 44.8951 32.0208 43.7568C32.4235 43.0125 32.5636 42.2683 32.5636 42.2683C32.5636 42.2683 34.3148 42.4171 35.0941 41.918C35.6457 41.5766 35.9697 40.7885 35.9259 40.0618Z" fill="#F9D2DD"/>
<path d="M21.785 38.6171C21.6099 38.4858 21.3823 38.3632 21.1021 38.2406C20.1389 37.8378 18.7992 38.3982 18.8605 40.0619C18.8168 40.7886 19.1407 41.5766 19.6836 41.9181C20.4541 42.4085 21.6975 42.3384 22.1966 42.2946C22.1966 42.2946 22.0215 41.314 21.8901 40.342C21.7675 39.4577 21.785 38.5821 21.785 38.6171Z" fill="#F9ACC0"/>
<path d="M33.6932 38.2406C33.413 38.3544 33.1854 38.4858 33.0102 38.6171C33.0102 38.5909 33.019 39.4314 32.9314 40.2545C32.8176 41.2527 32.59 42.2684 32.59 42.2684C32.7388 42.2771 34.3674 42.3909 35.1117 41.9181C35.6545 41.5766 35.9697 40.7886 35.9347 40.0619C35.9873 38.3982 34.6563 37.8378 33.6932 38.2406Z" fill="#F9ACC0"/>
<path d="M21.8026 41.6116C21.7413 41.6116 21.6975 41.5591 21.6975 41.5065C21.6975 41.5065 21.6887 41.0074 21.1459 40.1756C20.603 39.3438 19.5698 39.0549 19.561 39.0549C19.4997 39.0374 19.4735 38.9761 19.4822 38.9235C19.4997 38.8622 19.561 38.836 19.6136 38.8447C19.6574 38.8535 20.7343 39.1599 21.321 40.0618C21.9076 40.9549 21.9077 41.489 21.9077 41.5065C21.9077 41.5591 21.8639 41.6116 21.8026 41.6116Z" fill="#1F1F39"/>
<path d="M33.1678 41.3928C33.1503 41.3928 33.1328 41.3928 33.124 41.384C33.0715 41.3577 33.0452 41.2964 33.0715 41.2351C33.089 41.2001 33.5181 40.3333 34.166 39.6678C34.8227 38.9936 35.278 38.9061 35.2955 38.9061C35.3568 38.8973 35.4093 38.9323 35.4181 38.9936C35.4268 39.0549 35.3918 39.1074 35.3305 39.1162C35.3305 39.1162 34.919 39.195 34.3148 39.8167C33.6931 40.4559 33.2641 41.314 33.2641 41.3227C33.2466 41.3665 33.2028 41.3928 33.1678 41.3928Z" fill="#1F1F39"/>
<path d="M31.0488 42.4171C31.8177 42.4171 32.441 42.0251 32.441 41.5415C32.441 41.0579 31.8177 40.6659 31.0488 40.6659C30.2799 40.6659 29.6566 41.0579 29.6566 41.5415C29.6566 42.0251 30.2799 42.4171 31.0488 42.4171Z" fill="#F9ACC0"/>
<path d="M23.6851 42.4171C24.454 42.4171 25.0773 42.0251 25.0773 41.5416C25.0773 41.058 24.454 40.666 23.6851 40.666C22.9162 40.666 22.2929 41.058 22.2929 41.5416C22.2929 42.0251 22.9162 42.4171 23.6851 42.4171Z" fill="#F9ACC0"/>
<path d="M29.5078 46.1209C29.5078 46.1209 27.1437 46.3836 25.6552 46.2085C25.2874 46.1647 24.9372 46.0509 24.5957 45.9108V47.9334L24.5081 49.1943C24.7446 49.1767 25.0072 49.1242 25.2962 49.0104C27.3188 48.2223 29.5078 46.1209 29.5078 46.1209Z" fill="#F9ACC0"/>
<path d="M23.7113 38.3718C23.7288 38.2055 23.8252 38.0391 23.974 37.9341C24.1229 37.8202 24.3155 37.794 24.4907 37.8115C24.6658 37.829 24.8409 37.8815 24.9897 37.9953C25.1298 38.1092 25.2261 38.2843 25.2086 38.4594C25.1473 38.3018 25.0335 38.188 24.9109 38.1179C24.7796 38.0479 24.6307 38.0129 24.4819 37.9953C24.333 37.9866 24.1842 37.9953 24.0529 38.0566C23.9215 38.1267 23.7989 38.2318 23.7113 38.3718Z" fill="#1F1F39"/>
<path d="M29.5078 38.4332C29.5603 38.2756 29.6829 38.1355 29.8405 38.0567C29.9981 37.9691 30.182 37.9429 30.3571 37.9779C30.4447 37.9867 30.5322 38.0217 30.611 38.0655C30.6898 38.1092 30.7599 38.1705 30.8124 38.2406C30.9262 38.3807 30.9875 38.547 30.9875 38.7134C30.9087 38.5646 30.8212 38.442 30.7074 38.3456C30.6548 38.2931 30.5935 38.2581 30.5322 38.2318C30.4972 38.2231 30.4709 38.2056 30.4359 38.1968C30.4009 38.188 30.3659 38.1793 30.3308 38.1705C30.1907 38.1443 30.0419 38.153 29.9018 38.1968C29.7529 38.2318 29.6216 38.3194 29.5078 38.4332Z" fill="#1F1F39"/>
<path d="M27.7041 39.4226C27.6078 39.6328 27.5115 39.8429 27.4239 40.053C27.3363 40.2632 27.2575 40.4733 27.2313 40.6922C27.2225 40.7448 27.2225 40.7973 27.2225 40.8498C27.2312 40.9024 27.2313 40.9549 27.2488 40.9987C27.2751 41.095 27.3276 41.1738 27.4064 41.2263C27.4852 41.2789 27.5902 41.3139 27.7041 41.3314C27.8179 41.3489 27.9317 41.3577 28.0455 41.3489C27.9405 41.3927 27.8179 41.419 27.6953 41.419C27.5727 41.419 27.4502 41.4015 27.3276 41.3402C27.205 41.2789 27.1174 41.165 27.0737 41.0337C27.0474 40.9724 27.0474 40.9024 27.0386 40.8411C27.0386 40.7798 27.0386 40.7097 27.0474 40.6484C27.0824 40.4033 27.1787 40.1844 27.2926 39.9742C27.4064 39.7816 27.5377 39.589 27.7041 39.4226Z" fill="#1F1F39"/>
<path d="M25.2153 40.0719C25.2651 39.659 25.033 39.2914 24.697 39.2509C24.3609 39.2103 24.0481 39.5122 23.9983 39.9251C23.9484 40.338 24.1805 40.7055 24.5166 40.7461C24.8526 40.7866 25.1655 40.4848 25.2153 40.0719Z" fill="#1F1F39"/>
<path d="M30.8263 40.1883C30.8761 39.7754 30.6441 39.4078 30.308 39.3672C29.972 39.3267 29.6591 39.6285 29.6093 40.0414C29.5595 40.4543 29.7915 40.8219 30.1276 40.8624C30.4637 40.903 30.7765 40.6011 30.8263 40.1883Z" fill="#1F1F39"/>
<path d="M26.6271 42.0931C26.881 42.1544 27.0562 42.1719 27.205 42.1807C27.2751 42.1807 27.3451 42.1807 27.4064 42.1807C27.4677 42.1807 27.5377 42.1807 27.5903 42.1807C27.7128 42.1807 27.8442 42.1807 28.0105 42.1807C28.1769 42.1807 28.3695 42.1807 28.6322 42.1895C28.6235 42.3295 28.5797 42.4434 28.5184 42.5397C28.4571 42.6448 28.3783 42.7323 28.282 42.8111C28.0981 42.96 27.8529 43.0563 27.5903 43.0563C27.4589 43.0563 27.3276 43.03 27.205 42.9862C27.0824 42.9425 26.9686 42.8724 26.8723 42.7849C26.7759 42.6973 26.7059 42.5922 26.6534 42.4697C26.6183 42.3558 26.5921 42.2245 26.6271 42.0931Z" fill="#DA5742"/>
<path d="M27.0824 46.4624C25.8216 46.4624 24.5958 46.1997 24.1843 45.8232C24.1492 45.7882 24.1405 45.7269 24.1755 45.6831C24.2105 45.6393 24.2718 45.6394 24.3156 45.6744C24.7271 46.0509 26.1456 46.3136 27.4677 46.2523C27.5203 46.2523 27.564 46.2873 27.564 46.3398C27.564 46.3924 27.529 46.4361 27.4765 46.4361C27.3451 46.4624 27.2138 46.4624 27.0824 46.4624Z" fill="#1F1F39"/>
<path opacity="0.55" d="M35.5669 55.0958C35.0766 55.0958 34.6475 55.0082 34.3061 54.8594C33.6406 54.5704 32.8176 53.87 32.6599 52.1713C32.5899 51.3745 32.5987 50.6303 32.7037 49.9648C32.7212 49.8685 32.8088 49.8072 32.9051 49.816C33.0014 49.8335 33.0627 49.921 33.054 50.0173C32.9577 50.6565 32.9401 51.3745 33.0102 52.1363C33.124 53.3621 33.6056 54.1677 34.4462 54.5354C35.6195 55.0433 37.4932 54.588 39.008 53.4234C39.0868 53.3621 39.1919 53.3796 39.2532 53.4584C39.3145 53.5372 39.297 53.6423 39.2182 53.7036C37.931 54.693 36.6177 55.0958 35.5669 55.0958Z" fill="#EAEAFF"/>
<path opacity="0.55" d="M43.1934 60.1393C43.1672 60.1393 43.1409 60.1305 43.1234 60.1217L42.9133 60.0254C39.4459 58.4143 36.1712 56.8908 35.5583 53.1432C35.4357 52.3727 35.4269 51.6547 35.5407 51.0068C35.5582 50.9105 35.6458 50.8492 35.7421 50.8667C35.8385 50.8842 35.8997 50.9718 35.8822 51.0681C35.7771 51.681 35.7859 52.364 35.9085 53.0907C36.4952 56.6544 39.6823 58.1429 43.0709 59.7102L43.281 59.8065C43.3686 59.8503 43.4036 59.9554 43.3686 60.0429C43.316 60.0955 43.2547 60.1393 43.1934 60.1393Z" fill="#EAEAFF"/>
<path opacity="0.55" d="M38.5002 68.7288L38.1674 68.6325C38.5352 67.3629 38.2813 65.997 37.4582 64.7974C36.4863 63.3877 34.7526 62.2494 32.4411 61.5052C29.788 60.6471 27.8004 60.8922 26.6008 61.2425C25.9003 61.4526 25.2874 61.7503 24.7883 62.1268C25.41 62.1881 26.0492 62.2319 26.6796 62.2757C30.0857 62.5209 33.2991 62.7573 34.0609 65.0426C34.3849 66.0057 34.166 66.8901 33.4568 67.5293C32.765 68.1509 31.653 68.5099 30.3221 68.5362C28.9036 68.5625 27.3626 68.2122 25.8566 67.538C24.727 67.0302 23.9302 66.3822 23.5012 65.6205C23.0984 64.9112 23.0371 64.1495 23.3261 63.414C23.4662 63.0462 23.6851 62.7047 23.974 62.3895C21.9952 62.1444 20.209 61.6978 19.1582 60.5858C18.4315 59.824 18.1513 58.8171 18.3177 57.6613C17.6085 57.6438 16.8467 57.5913 16.0236 57.4862C14.5789 57.3023 13.5457 56.9696 12.4512 56.3391L12.6263 56.0327C13.5107 56.5405 14.43 56.9258 16.0586 57.1359C16.8905 57.241 17.6697 57.2935 18.379 57.3111C18.6329 56.1815 19.2808 55.0082 20.2177 54.0101C21.1108 53.0469 22.1703 52.3639 23.2035 52.0662C24.3856 51.7248 25.4626 51.9174 26.3119 52.6266C26.8898 53.1082 27.0474 53.7824 26.7409 54.5004C26.3119 55.4986 25.0773 56.4004 23.3524 56.9783C22.3279 57.3198 20.7869 57.6701 18.703 57.6701C18.6942 57.6701 18.6854 57.6701 18.6767 57.6701C18.5191 58.6595 18.7117 59.6139 19.4034 60.3494C20.4366 61.4351 22.2666 61.8554 24.2892 62.0831C25.8828 60.6821 28.9649 60.0254 32.5549 61.1812C34.9365 61.9517 36.7315 63.1338 37.7559 64.6048C38.6228 65.8919 38.8942 67.3541 38.5002 68.7288ZM24.4031 62.4421C24.0529 62.7748 23.7902 63.1425 23.6413 63.5365C23.1072 64.9287 23.9828 66.3034 25.9967 67.2228C28.4045 68.3173 31.653 68.685 33.2116 67.2753C33.8245 66.7237 33.9996 65.997 33.7194 65.1564C33.0277 63.09 29.9281 62.8623 26.6446 62.6259C25.8916 62.5821 25.1386 62.5209 24.4031 62.4421ZM24.2367 52.2676C23.1159 52.2676 21.7851 52.8368 20.4541 54.2552C19.6223 55.1396 18.9831 56.2428 18.7292 57.3198C20.7431 57.3111 22.2316 56.9871 23.221 56.6456C24.8234 56.1027 26.0142 55.2534 26.3994 54.3603C26.6446 53.7912 26.5308 53.2833 26.0667 52.8981C25.5939 52.504 24.9634 52.2676 24.2367 52.2676Z" fill="#EAEAFF"/>
<path d="M74.1722 38.472C74.1474 38.472 74.1143 38.4637 74.0895 38.4473C74.0895 38.4473 73.8416 38.2494 73.3043 38.1834C72.7671 38.1175 72.4365 38.3153 72.4282 38.3153C72.3703 38.3483 72.296 38.3318 72.2546 38.2741C72.2216 38.2164 72.2381 38.1422 72.296 38.1092C72.3125 38.101 72.7092 37.8702 73.3291 37.9444C73.949 38.0186 74.23 38.2576 74.2466 38.2659C74.2962 38.3071 74.3044 38.3895 74.2631 38.439C74.2466 38.4555 74.2135 38.472 74.1722 38.472Z" fill="#1F1F39"/>
<path d="M67.6757 38.4719C67.6427 38.4719 67.6013 38.4554 67.5765 38.4307C67.5352 38.3812 67.5435 38.2988 67.5931 38.2576C67.6013 38.2493 67.8906 38.0103 68.5105 37.9361C69.1304 37.8619 69.5272 38.0927 69.5437 38.1009C69.6016 38.1339 69.6181 38.2081 69.585 38.2741C69.552 38.3318 69.4776 38.3483 69.4115 38.3153C69.4032 38.3153 69.0643 38.1174 68.5353 38.1834C67.9981 38.2493 67.7501 38.4472 67.7501 38.4472C67.7253 38.4637 67.7005 38.4719 67.6757 38.4719Z" fill="#1F1F39"/>
<path d="M86.1984 62.957L78.7018 62.4788L81.14 68.9752C83.2725 67.9694 85.2396 66.6833 87.0001 65.1582C86.5703 63.9051 86.1984 62.957 86.1984 62.957Z" fill="#F9D2DD"/>
<path d="M53.666 65.3725C55.4348 66.8647 57.4102 68.126 59.551 69.0988L62.0967 62.3057L54.6 62.7838C54.5918 62.7921 54.1454 63.938 53.666 65.3725Z" fill="#F9D2DD"/>
<path d="M86.1984 62.957L78.7018 62.4788L79.5448 64.6883L86.9836 65.1499C86.5786 63.9875 86.1984 62.957 86.1984 62.957Z" fill="#F9ACC0"/>
<path d="M54.6744 62.5447L62.171 62.0666L61.3279 64.276L53.7734 65.0097C54.1784 63.8556 54.6744 62.5447 54.6744 62.5447Z" fill="#F9ACC0"/>
<path d="M79.1809 52.6848C74.1887 49.8076 66.4771 50.2363 61.8651 52.3056C58.592 53.7812 54.9966 58.365 53.6742 63.7401H59.526L58.559 68.6206C62.0552 70.4014 66.006 71.4071 70.1965 71.4071C74.4118 71.4071 78.3792 70.3931 81.8837 68.6041L80.8588 64.3749L86.7767 63.8473C86.7767 63.8555 85.413 56.271 79.1809 52.6848Z" fill="#3D5CFF"/>
<path d="M59.6171 63.7401L61.1214 58.2166L57.6417 63.7484L59.6171 63.7401Z" fill="#224BF4"/>
<path d="M78.7018 57.5241L80.8673 64.375L82.6278 64.2266L78.7018 57.5241Z" fill="#224BF4"/>
<g opacity="0.4513">
<g opacity="0.4513">
<path opacity="0.4513" d="M67.6013 63.3774C68.2404 63.3774 68.7584 62.8607 68.7584 62.2233C68.7584 61.5858 68.2404 61.0691 67.6013 61.0691C66.9622 61.0691 66.4442 61.5858 66.4442 62.2233C66.4442 62.8607 66.9622 63.3774 67.6013 63.3774Z" fill="#F9EDC7"/>
<path opacity="0.4513" d="M73.015 61.1928C73.6541 61.1928 74.1721 60.6761 74.1721 60.0386C74.1721 59.4012 73.6541 58.8845 73.015 58.8845C72.3759 58.8845 71.8578 59.4012 71.8578 60.0386C71.8578 60.6761 72.3759 61.1928 73.015 61.1928Z" fill="#F9EDC7"/>
<path opacity="0.4513" d="M63.5926 57.3181C64.2317 57.3181 64.7497 56.8013 64.7497 56.1639C64.7497 55.5264 64.2317 55.0097 63.5926 55.0097C62.9535 55.0097 62.4355 55.5264 62.4355 56.1639C62.4355 56.8013 62.9535 57.3181 63.5926 57.3181Z" fill="#F9EDC7"/>
<path opacity="0.4513" d="M63.5926 68.6949C64.2317 68.6949 64.7497 68.1781 64.7497 67.5407C64.7497 66.9033 64.2317 66.3865 63.5926 66.3865C62.9535 66.3865 62.4355 66.9033 62.4355 67.5407C62.4355 68.1781 62.9535 68.6949 63.5926 68.6949Z" fill="#F9EDC7"/>
<path opacity="0.4513" d="M73.7589 69.8491C74.398 69.8491 74.916 69.3324 74.916 68.6949C74.916 68.0575 74.398 67.5408 73.7589 67.5408C73.1198 67.5408 72.6017 68.0575 72.6017 68.6949C72.6017 69.3324 73.1198 69.8491 73.7589 69.8491Z" fill="#F9EDC7"/>
<path opacity="0.4513" d="M83.0162 64.985C83.6552 64.985 84.1733 64.4683 84.1733 63.8309C84.1733 63.1934 83.6552 62.6767 83.0162 62.6767C82.3771 62.6767 81.859 63.1934 81.859 63.8309C81.859 64.4683 82.3771 64.985 83.0162 64.985Z" fill="#F9EDC7"/>
<path opacity="0.4513" d="M55.9058 60.6157C56.5449 60.6157 57.063 60.0989 57.063 59.4615C57.063 58.8241 56.5449 58.3073 55.9058 58.3073C55.2668 58.3073 54.7487 58.8241 54.7487 59.4615C54.7487 60.0989 55.2668 60.6157 55.9058 60.6157Z" fill="#F9EDC7"/>
<path opacity="0.4513" d="M83.4292 58.2249C84.0683 58.2249 84.5864 57.7082 84.5864 57.0707C84.5864 56.4333 84.0683 55.9166 83.4292 55.9166C82.7902 55.9166 82.2721 56.4333 82.2721 57.0707C82.2721 57.7082 82.7902 58.2249 83.4292 58.2249Z" fill="#F9EDC7"/>
<path opacity="0.4513" d="M76.3213 53.2784C76.9603 53.2784 77.4784 52.7617 77.4784 52.1243C77.4784 51.4868 76.9603 50.9701 76.3213 50.9701C75.6822 50.9701 75.1641 51.4868 75.1641 52.1243C75.1641 52.7617 75.6822 53.2784 76.3213 53.2784Z" fill="#F9EDC7"/>
</g>
</g>
<path d="M59.6254 63.8308C59.6171 63.8308 59.6089 63.8308 59.6006 63.8308C59.5593 63.8226 59.5345 63.7731 59.5428 63.7319L61.1958 57.6148C61.2041 57.5735 61.2537 57.5488 61.295 57.5571C61.3363 57.5653 61.3611 57.6148 61.3529 57.656L59.6998 63.7731C59.6915 63.8061 59.6585 63.8308 59.6254 63.8308Z" fill="#1F1F39"/>
<path d="M80.7844 64.4326C80.7514 64.4326 80.7183 64.4079 80.71 64.3749L78.5941 57.5241C78.5776 57.4829 78.6024 57.4416 78.6437 57.4251C78.685 57.4087 78.7264 57.4334 78.7429 57.4746L80.8671 64.3255C80.8836 64.3667 80.8588 64.4079 80.8175 64.4244C80.8009 64.4244 80.7927 64.4326 80.7844 64.4326Z" fill="#1F1F39"/>
<path d="M63.5927 39.4283C63.5927 39.4283 61.2784 35.5536 62.3529 33.4101C63.4274 31.2667 64.9151 31.1018 64.9151 31.1018C64.9151 31.1018 66.3202 27.5568 71.0315 27.5568C75.7427 27.5568 76.8172 32.1735 76.8172 32.1735C76.8172 32.1735 78.9662 32.833 78.8835 34.9765C78.8009 37.12 76.8007 42.0417 76.8007 42.0417L63.5927 39.4283Z" fill="white"/>
<path d="M65.0143 38.876C65.0143 38.876 63.9481 37.9527 62.5925 38.571C61.237 39.1893 61.1048 41.0524 62.1214 42.2231C63.1381 43.3938 65.7003 43.1217 65.7003 43.1217L65.0143 38.876Z" fill="#F9ACC0"/>
<path d="M76.3211 38.876C76.3211 38.876 77.3874 37.9527 78.7429 38.571C80.0901 39.1893 80.2306 41.0524 79.214 42.2231C78.1974 43.3938 75.6351 43.1217 75.6351 43.1217L76.3211 38.876Z" fill="#F9ACC0"/>
<path d="M65.3282 42.355C65.2703 42.355 65.229 42.3056 65.229 42.2561C65.229 42.2561 65.2207 41.7862 64.7083 41.003C64.1958 40.2198 63.2205 39.9478 63.2123 39.9478C63.1544 39.9313 63.1296 39.8736 63.1379 39.8241C63.1544 39.7664 63.2123 39.7417 63.2619 39.7499C63.3032 39.7581 64.3198 40.0467 64.8736 40.8958C65.4274 41.7367 65.4273 42.2396 65.4273 42.2561C65.4273 42.3056 65.386 42.355 65.3282 42.355Z" fill="#1F1F39"/>
<path d="M76.4699 42.149C76.4533 42.149 76.4368 42.149 76.4285 42.1407C76.3789 42.116 76.3541 42.0583 76.3789 42.0006C76.3955 41.9676 76.8005 41.1514 77.4121 40.5249C78.032 39.8901 78.4618 39.8077 78.4783 39.8077C78.5362 39.7994 78.5858 39.8324 78.594 39.8901C78.6023 39.9478 78.5692 39.9973 78.5114 40.0055C78.5114 40.0055 78.1229 40.0797 77.5526 40.665C76.9658 41.2669 76.5608 42.0748 76.5608 42.083C76.5442 42.1242 76.5029 42.149 76.4699 42.149Z" fill="#1F1F39"/>
<path d="M65.1629 37.5323C65.1629 37.5323 64.7496 40.7062 65.4273 43.1135C66.1051 45.5208 67.8574 46.8976 67.8574 46.8976L67.5185 51.5802C67.5185 51.5802 67.9896 52.6107 70.4857 52.6107C73.1885 52.6107 73.9324 51.5802 73.9324 51.5802L73.8001 46.9718C73.8001 46.9718 75.4862 46.6997 76.2962 43.6659C77.1062 40.6403 76.7013 37.9527 76.7013 37.9527C76.7013 37.9527 72.7174 38.571 71.3701 36.9222C70.0229 35.2734 68.6673 33.6163 66.7085 34.4407C64.7496 35.2651 65.1629 37.5323 65.1629 37.5323Z" fill="#F9D2DD"/>
<path d="M68.7336 40.9123C69.0714 40.9123 69.3452 40.5875 69.3452 40.1868C69.3452 39.7861 69.0714 39.4613 68.7336 39.4613C68.3958 39.4613 68.1219 39.7861 68.1219 40.1868C68.1219 40.5875 68.3958 40.9123 68.7336 40.9123Z" fill="#1F1F39"/>
<path d="M73.1886 40.9123C73.5264 40.9123 73.8002 40.5875 73.8002 40.1868C73.8002 39.7861 73.5264 39.4613 73.1886 39.4613C72.8508 39.4613 72.577 39.7861 72.577 40.1868C72.577 40.5875 72.8508 40.9123 73.1886 40.9123Z" fill="#1F1F39"/>
<path d="M70.6593 39.0162C70.6593 39.0162 70.2874 40.7722 70.494 41.1844C70.7007 41.5966 71.2379 41.3905 71.2379 41.3905C71.2379 41.3905 70.7007 41.2503 70.7007 40.8381C70.6924 40.4259 70.6593 39.0162 70.6593 39.0162Z" fill="#1F1F39"/>
<path d="M67.8574 46.8975C67.8657 47.318 67.7087 50.1457 67.6673 50.3106C67.7087 50.3023 72.1389 48.5876 72.9737 47.8044C72.9737 47.3262 72.9902 46.9717 72.9902 46.9717C72.9902 46.9717 72.1802 47.4499 70.2213 47.3839C69.3121 47.3509 68.3286 47.1778 67.8574 46.8975Z" fill="#F9ACC0"/>
<path d="M74.3042 42.7012C75.03 42.7012 75.6184 42.3321 75.6184 41.8768C75.6184 41.4215 75.03 41.0524 74.3042 41.0524C73.5784 41.0524 72.99 41.4215 72.99 41.8768C72.99 42.3321 73.5784 42.7012 74.3042 42.7012Z" fill="#F9ACC0"/>
<path d="M67.3533 42.7013C68.0791 42.7013 68.6675 42.3322 68.6675 41.8768C68.6675 41.4215 68.0791 41.0524 67.3533 41.0524C66.6275 41.0524 66.0391 41.4215 66.0391 41.8768C66.0391 42.3322 66.6275 42.7013 67.3533 42.7013Z" fill="#F9ACC0"/>
<path d="M65.1629 36.5429C65.1629 36.5429 65.7002 42.9898 68.684 43.74C71.6678 44.482 73.8581 43.3278 74.8251 42.2478C75.7921 41.1678 75.8252 37.6971 75.8252 37.6971L76.8336 37.3673C76.8336 37.3673 77.1063 43.8224 75.7922 45.562C74.478 47.3015 72.61 47.8373 70.585 47.7549C69.1303 47.6889 67.6425 47.219 66.3201 45.4795C65.0059 43.74 64.5017 37.6971 64.5017 37.6971L65.1629 36.5429Z" fill="white"/>
<path d="M70.1221 42.3962C70.1221 42.3962 70.6181 42.5611 70.9487 42.4787C71.2793 42.3962 71.9405 41.9016 71.9405 41.9016C71.9405 41.9016 72.1058 41.8191 72.1885 41.9016C72.2711 41.984 71.7421 42.9238 71.2793 43.0558C70.7007 43.2206 70.2874 42.9733 70.0395 42.6435C69.7915 42.3138 70.1221 42.3962 70.1221 42.3962Z" fill="#F95368"/>
</svg>
