<svg width="35" height="35" viewBox="0 0 35 35" fill="none" xmlns="http://www.w3.org/2000/svg">
<path d="M20.6226 7.01642C23.2264 7.79127 25.4487 9.50739 26.8567 11.8306C28.2647 14.1539 28.7578 16.918 28.2399 19.5848C27.722 22.2516 26.2301 24.6302 24.0548 26.2575C21.8796 27.8849 19.1765 28.6444 16.472 28.3884C13.7675 28.1323 11.255 26.8789 9.42383 24.8722C7.59262 22.8656 6.57373 20.2492 6.56553 17.5326C6.55732 14.816 7.56039 12.1936 9.37944 10.1758C11.1985 8.15815 13.7033 6.8896 16.4062 6.6172" stroke="#3C3B5C" stroke-width="1.5" stroke-linecap="round" stroke-linejoin="round"/>
<path d="M28.6562 10.5875C29.9458 12.6623 30.6279 15.0571 30.625 17.5" stroke="#007AFF" stroke-width="1.5" stroke-linecap="round" stroke-linejoin="round"/>
<path d="M23.9367 6.05938C24.9834 6.6402 25.9457 7.36147 26.7969 8.20313" stroke="#3C3B5C" stroke-width="1.5" stroke-linecap="round" stroke-linejoin="round"/>
<path d="M10.2594 28.4375C9.52098 27.9605 8.83214 27.4109 8.20312 26.7969" stroke="#007AFF" stroke-width="1.5" stroke-linecap="round" stroke-linejoin="round"/>
<path d="M24.3031 13.6719L10.6969 32.2656L19.1297 16.9531H11.4734L18.2602 2.73438H23.182L16.6469 13.6719H24.3031Z" stroke="#007AFF" stroke-width="1.5" stroke-linecap="round" stroke-linejoin="round"/>
</svg>
