<svg width="174" height="71" viewBox="0 0 174 71" fill="none" xmlns="http://www.w3.org/2000/svg">
<g filter="url(#filter0_d_6_2297)">
<rect x="8" width="157.605" height="54.5528" rx="12" fill="#FFE7EE"/>
</g>
<path d="M34.2836 25.1667L30.7476 20.2227V25.1667H27.6116V13.8867H30.7476V18.7507L34.2516 13.8867H37.8676L33.7236 19.3587L38.0756 25.1667H34.2836ZM43.397 25.2787C42.501 25.2787 41.6956 25.092 40.981 24.7187C40.277 24.3454 39.7223 23.812 39.317 23.1187C38.9116 22.4254 38.709 21.6094 38.709 20.6707C38.709 19.7427 38.9116 18.932 39.317 18.2387C39.733 17.5454 40.293 17.012 40.997 16.6387C41.7116 16.2654 42.517 16.0787 43.413 16.0787C44.309 16.0787 45.109 16.2654 45.813 16.6387C46.5276 17.012 47.0876 17.5454 47.493 18.2387C47.909 18.932 48.117 19.7427 48.117 20.6707C48.117 21.5987 47.909 22.4147 47.493 23.1187C47.0876 23.812 46.5276 24.3454 45.813 24.7187C45.0983 25.092 44.293 25.2787 43.397 25.2787ZM43.397 22.5587C43.8343 22.5587 44.197 22.3987 44.485 22.0787C44.7836 21.748 44.933 21.2787 44.933 20.6707C44.933 20.0627 44.7836 19.5987 44.485 19.2787C44.197 18.9587 43.8396 18.7987 43.413 18.7987C42.9863 18.7987 42.629 18.9587 42.341 19.2787C42.053 19.5987 41.909 20.0627 41.909 20.6707C41.909 21.2894 42.0476 21.7587 42.325 22.0787C42.6023 22.3987 42.9596 22.5587 43.397 22.5587ZM55.2648 16.1107C56.2995 16.1107 57.1208 16.4574 57.7288 17.1507C58.3368 17.8334 58.6408 18.7614 58.6408 19.9347V25.1667H55.5048V20.3507C55.5048 19.8387 55.3715 19.4387 55.1048 19.1507C54.8382 18.852 54.4808 18.7027 54.0328 18.7027C53.5635 18.7027 53.1955 18.852 52.9288 19.1507C52.6622 19.4387 52.5288 19.8387 52.5288 20.3507V25.1667H49.3928V16.1907H52.5288V17.4707C52.8062 17.0654 53.1795 16.74 53.6488 16.4947C54.1182 16.2387 54.6568 16.1107 55.2648 16.1107ZM65.6576 22.4947V25.1667H64.2976C62.0042 25.1667 60.8576 24.0307 60.8576 21.7587V18.7987H59.7536V16.1907H60.8576V14.0147H64.0096V16.1907H65.6416V18.7987H64.0096V21.8067C64.0096 22.052 64.0629 22.228 64.1696 22.3347C64.2869 22.4414 64.4789 22.4947 64.7456 22.4947H65.6576ZM66.584 20.6707C66.584 19.7427 66.7493 18.932 67.08 18.2387C67.4213 17.5454 67.88 17.012 68.456 16.6387C69.0426 16.2654 69.6933 16.0787 70.408 16.0787C71.0266 16.0787 71.56 16.2014 72.008 16.4467C72.456 16.692 72.8026 17.0227 73.048 17.4387V16.1907H76.184V25.1667H73.048V23.9187C72.8026 24.3347 72.4506 24.6654 71.992 24.9107C71.544 25.156 71.016 25.2787 70.408 25.2787C69.6933 25.2787 69.0426 25.092 68.456 24.7187C67.88 24.3454 67.4213 23.812 67.08 23.1187C66.7493 22.4147 66.584 21.5987 66.584 20.6707ZM73.048 20.6707C73.048 20.0947 72.888 19.6414 72.568 19.3107C72.2586 18.98 71.8746 18.8147 71.416 18.8147C70.9466 18.8147 70.5573 18.98 70.248 19.3107C69.9386 19.6307 69.784 20.084 69.784 20.6707C69.784 21.2467 69.9386 21.7054 70.248 22.0467C70.5573 22.3774 70.9466 22.5427 71.416 22.5427C71.8746 22.5427 72.2586 22.3774 72.568 22.0467C72.888 21.716 73.048 21.2574 73.048 20.6707ZM83.587 25.1667L81.107 21.4867V25.1667H77.971V13.3267H81.107V19.7107L83.587 16.1907H87.347L83.811 20.7027L87.411 25.1667H83.587ZM98.0648 25.1667L94.5288 20.2227V25.1667H91.3928V13.8867H94.5288V18.7507L98.0328 13.8867H101.649L97.5048 19.3587L101.857 25.1667H98.0648ZM102.49 20.6707C102.49 19.7427 102.656 18.932 102.986 18.2387C103.328 17.5454 103.786 17.012 104.362 16.6387C104.949 16.2654 105.6 16.0787 106.314 16.0787C106.933 16.0787 107.466 16.2014 107.914 16.4467C108.362 16.692 108.709 17.0227 108.954 17.4387V16.1907H112.09V25.1667H108.954V23.9187C108.709 24.3347 108.357 24.6654 107.898 24.9107C107.45 25.156 106.922 25.2787 106.314 25.2787C105.6 25.2787 104.949 25.092 104.362 24.7187C103.786 24.3454 103.328 23.812 102.986 23.1187C102.656 22.4147 102.49 21.5987 102.49 20.6707ZM108.954 20.6707C108.954 20.0947 108.794 19.6414 108.474 19.3107C108.165 18.98 107.781 18.8147 107.322 18.8147C106.853 18.8147 106.464 18.98 106.154 19.3107C105.845 19.6307 105.69 20.084 105.69 20.6707C105.69 21.2467 105.845 21.7054 106.154 22.0467C106.464 22.3774 106.853 22.5427 107.322 22.5427C107.781 22.5427 108.165 22.3774 108.474 22.0467C108.794 21.716 108.954 21.2574 108.954 20.6707ZM125.605 16.1107C126.736 16.1107 127.621 16.452 128.261 17.1347C128.912 17.8174 129.237 18.7507 129.237 19.9347V25.1667H126.101V20.3507C126.101 19.8707 125.968 19.4974 125.701 19.2307C125.435 18.964 125.072 18.8307 124.613 18.8307C124.155 18.8307 123.792 18.964 123.525 19.2307C123.259 19.4974 123.125 19.8707 123.125 20.3507V25.1667H119.989V20.3507C119.989 19.8707 119.856 19.4974 119.589 19.2307C119.333 18.964 118.976 18.8307 118.517 18.8307C118.048 18.8307 117.68 18.964 117.413 19.2307C117.147 19.4974 117.013 19.8707 117.013 20.3507V25.1667H113.877V16.1907H117.013V17.3747C117.291 16.9907 117.648 16.6867 118.085 16.4627C118.533 16.228 119.045 16.1107 119.621 16.1107C120.283 16.1107 120.869 16.2547 121.381 16.5427C121.904 16.8307 122.315 17.236 122.613 17.7587C122.933 17.268 123.355 16.8734 123.877 16.5747C124.4 16.2654 124.976 16.1107 125.605 16.1107ZM132.539 15.3587C131.985 15.3587 131.537 15.2094 131.195 14.9107C130.865 14.6014 130.699 14.2174 130.699 13.7587C130.699 13.2894 130.865 12.9 131.195 12.5907C131.537 12.2814 131.985 12.1267 132.539 12.1267C133.083 12.1267 133.521 12.2814 133.851 12.5907C134.193 12.9 134.363 13.2894 134.363 13.7587C134.363 14.2174 134.193 14.6014 133.851 14.9107C133.521 15.2094 133.083 15.3587 132.539 15.3587ZM134.091 16.1907V25.1667H130.955V16.1907H134.091Z" fill="#1F1F39"/>
<rect x="26.7156" y="33.9028" width="120.174" height="1.79167" rx="0.895837" fill="white"/>
<path d="M26.7156 34.7986C26.7156 34.3039 27.1167 33.9028 27.6114 33.9028H106.365V35.6944H27.6114C27.1167 35.6944 26.7156 35.2934 26.7156 34.7986Z" fill="url(#paint0_linear_6_2297)"/>
<path d="M135.944 38.2358C133.663 38.2348 131.421 38.8112 129.435 39.909C127.45 41.0067 125.79 42.5883 124.617 44.4994C123.444 46.4106 122.798 48.586 122.742 50.8137C122.686 53.0414 123.222 55.2452 124.297 57.2102L122.744 62.7746C122.693 62.9487 122.691 63.1331 122.739 63.3079C122.788 63.4828 122.884 63.6414 123.018 63.7665C123.118 63.8555 123.235 63.9241 123.362 63.9684C123.489 64.0127 123.624 64.0317 123.759 64.0244C123.85 64.0388 123.943 64.0388 124.033 64.0244L130.035 62.3878C130.295 62.3181 130.515 62.1504 130.649 61.9216C130.782 61.6928 130.817 61.4217 130.745 61.1678C130.674 60.9139 130.502 60.6982 130.268 60.568C130.034 60.4378 129.756 60.4038 129.496 60.4735L125.201 61.6042L126.369 57.3392C126.404 57.2132 126.412 57.0817 126.395 56.9524C126.378 56.823 126.334 56.6983 126.267 56.5854C125.038 54.5055 124.546 52.0875 124.866 49.7064C125.187 47.3253 126.303 45.1142 128.042 43.4158C129.78 41.7174 132.044 40.6268 134.481 40.313C136.919 39.9993 139.394 40.4799 141.524 41.6803C143.653 42.8808 145.318 44.734 146.259 46.9527C147.201 49.1713 147.366 51.6313 146.731 53.9513C146.095 56.2712 144.693 58.3215 142.743 59.784C140.793 61.2466 138.403 62.0398 135.944 62.0406C135.319 62.0412 134.694 61.9915 134.076 61.8919C133.811 61.8488 133.539 61.9103 133.32 62.0627C133.101 62.2152 132.953 62.4462 132.908 62.7052C132.864 62.9643 132.927 63.2298 133.083 63.4437C133.239 63.6575 133.476 63.8021 133.741 63.8458C135.541 64.1415 137.385 64.0693 139.155 63.6337C140.925 63.1981 142.583 62.4086 144.025 61.3151C145.467 60.2216 146.661 58.8478 147.532 57.2806C148.403 55.7134 148.931 53.9868 149.084 52.2099C149.237 50.4331 149.011 48.6446 148.42 46.9574C147.83 45.2702 146.887 43.721 145.652 42.4078C144.417 41.0945 142.917 40.0457 141.246 39.3276C139.575 38.6095 137.77 38.2377 135.944 38.2358Z" fill="#EC7B9C"/>
<path d="M134.929 46.379L133.751 44.7921C133.574 44.5542 133.346 44.3566 133.083 44.2128C132.82 44.069 132.528 43.9824 132.228 43.9589C131.926 43.9372 131.623 43.9791 131.339 44.0817C131.055 44.1844 130.798 44.3455 130.583 44.554L129.364 45.7442C129.092 46.0158 128.88 46.339 128.74 46.6938C128.6 47.0486 128.536 47.4275 128.552 47.8073C128.552 49.5629 129.933 51.7748 132.614 54.3537C135.752 57.3293 137.925 58.3212 139.407 58.3212C139.784 58.3308 140.159 58.2645 140.508 58.1262C140.858 57.988 141.174 57.7809 141.438 57.5177L142.657 56.3275C142.878 56.1243 143.05 55.8752 143.16 55.5983C143.27 55.3215 143.315 55.0241 143.292 54.7281C143.269 54.432 143.177 54.1448 143.025 53.8878C142.873 53.6307 142.664 53.4103 142.413 53.2428L140.819 52.122C140.553 51.936 140.247 51.8125 139.925 51.7609C139.603 51.7092 139.273 51.731 138.96 51.8244L137.447 52.2906C137.353 52.2841 137.262 52.2533 137.183 52.2013C136.282 51.5694 135.479 50.8145 134.797 49.9597C134.79 49.9236 134.79 49.8867 134.797 49.8506C134.929 49.4142 135.152 48.7099 135.305 48.2239C135.403 47.9101 135.421 47.5772 135.355 47.2552C135.289 46.9332 135.143 46.6322 134.929 46.379ZM136.239 53.947C136.782 54.2377 137.42 54.3089 138.016 54.1454L139.58 53.6891L141.215 54.929L140.006 56.0894C139.519 56.5556 137.722 56.4168 134.056 52.9055C131.009 50.0192 130.593 48.4421 130.593 47.7677C130.601 47.5389 130.699 47.322 130.867 47.1626L132.167 45.9823L133.365 47.6189C133.203 48.1049 132.969 48.829 132.847 49.2555C132.703 49.7106 132.721 50.2002 132.898 50.6441C133.774 51.9659 134.926 53.0916 136.28 53.947H136.239Z" fill="#EC7B9C"/>
<defs>
<filter id="filter0_d_6_2297" x="0" y="0" width="173.605" height="70.5528" filterUnits="userSpaceOnUse" color-interpolation-filters="sRGB">
<feFlood flood-opacity="0" result="BackgroundImageFix"/>
<feColorMatrix in="SourceAlpha" type="matrix" values="0 0 0 0 0 0 0 0 0 0 0 0 0 0 0 0 0 0 127 0" result="hardAlpha"/>
<feMorphology radius="4" operator="erode" in="SourceAlpha" result="effect1_dropShadow_6_2297"/>
<feOffset dy="8"/>
<feGaussianBlur stdDeviation="6"/>
<feComposite in2="hardAlpha" operator="out"/>
<feColorMatrix type="matrix" values="0 0 0 0 0.721569 0 0 0 0 0.721569 0 0 0 0 0.823529 0 0 0 0.2 0"/>
<feBlend mode="normal" in2="BackgroundImageFix" result="effect1_dropShadow_6_2297"/>
<feBlend mode="normal" in="SourceGraphic" in2="effect1_dropShadow_6_2297" result="shape"/>
</filter>
<linearGradient id="paint0_linear_6_2297" x1="66.5401" y1="33.9028" x2="23.3253" y2="33.9028" gradientUnits="userSpaceOnUse">
<stop stop-color="#EC7B9C"/>
<stop offset="1" stop-color="#EC7B9C" stop-opacity="0.5"/>
</linearGradient>
</defs>
</svg>
