<svg width="35" height="35" viewBox="0 0 35 35" fill="none" xmlns="http://www.w3.org/2000/svg">
<path d="M26.25 19.6875C26.6527 19.6875 26.9792 19.361 26.9792 18.9583C26.9792 18.5556 26.6527 18.2292 26.25 18.2292C25.8473 18.2292 25.5208 18.5556 25.5208 18.9583C25.5208 19.361 25.8473 19.6875 26.25 19.6875Z" fill="#007AFF"/>
<path d="M7.29167 15.9833V24.7917C7.29167 25.5652 7.59896 26.3071 8.14594 26.8541C8.69292 27.401 9.43479 27.7083 10.2083 27.7083H27.7083C28.4819 27.7083 29.2237 27.401 29.7707 26.8541C30.3177 26.3071 30.625 25.5652 30.625 24.7917V13.125C30.625 12.3514 30.3177 11.6096 29.7707 11.0626C29.2237 10.5156 28.4819 10.2083 27.7083 10.2083H15.9906C15.8743 9.28446 15.5384 8.40186 15.0112 7.63434C14.4839 6.86681 13.7806 6.23666 12.96 5.79657C12.1393 5.35648 11.2253 5.11924 10.2942 5.10468C9.36318 5.09011 8.44216 5.29866 7.60818 5.71287C6.77421 6.12709 6.05151 6.73493 5.50052 7.48559C4.94952 8.23625 4.58624 9.10791 4.44104 10.0277C4.29584 10.9475 4.37294 11.8887 4.66591 12.7726C4.95887 13.6564 5.45918 14.4574 6.125 15.1083C6.47845 15.4445 6.87 15.7381 7.29167 15.9833ZM9.33333 16.7125H9.53021C9.75476 16.7465 9.98127 16.766 10.2083 16.7708C10.3978 16.7819 10.5877 16.7819 10.7771 16.7708H10.85H10.974L11.3021 16.7198L11.4552 16.6833H11.5646L11.8271 16.6177L12.0677 16.5375H12.1479L12.3375 16.4646C12.4403 16.4283 12.5402 16.3845 12.6365 16.3333H12.7021L12.826 16.275L13.125 16.1073L13.2635 16.0271C13.3656 15.9615 13.4677 15.8958 13.5625 15.8229L13.6865 15.7281C13.7886 15.6541 13.8861 15.5738 13.9781 15.4875L14.0875 15.3927C14.1823 15.3052 14.2771 15.2177 14.3646 15.1229L14.4521 15.0281C14.5396 14.9333 14.6198 14.8458 14.7 14.7437H25.5208C25.7142 14.7437 25.8997 14.8206 26.0364 14.9573C26.1732 15.0941 26.25 15.2795 26.25 15.4729V16.2021C25.4765 16.2021 24.7346 16.5094 24.1876 17.0564C23.6406 17.6033 23.3333 18.3452 23.3333 19.1187C23.3333 19.8923 23.6406 20.6342 24.1876 21.1811C24.7346 21.7281 25.4765 22.0354 26.25 22.0354V22.7646C26.25 22.958 26.1732 23.1434 26.0364 23.2802C25.8997 23.4169 25.7142 23.4937 25.5208 23.4937H8.75V16.5885H8.85937C9.01979 16.6469 9.17292 16.676 9.33333 16.6979V16.7125ZM24.7917 18.9583C24.7917 18.5716 24.9453 18.2006 25.2188 17.9271C25.4923 17.6536 25.8632 17.5 26.25 17.5H29.1667V20.4167H26.25C25.8632 20.4167 25.4923 20.263 25.2188 19.9895C24.9453 19.716 24.7917 19.3451 24.7917 18.9583ZM29.1667 24.7917C29.1667 25.1784 29.013 25.5494 28.7395 25.8229C28.466 26.0964 28.0951 26.25 27.7083 26.25H10.2083C9.82156 26.25 9.45063 26.0964 9.17714 25.8229C8.90365 25.5494 8.75 25.1784 8.75 24.7917H25.5208C26.101 24.7917 26.6574 24.5612 27.0676 24.151C27.4779 23.7407 27.7083 23.1843 27.7083 22.6042V21.875H29.1667V24.7917ZM29.1667 13.125V16.0417H27.7083V15.3125C27.7083 14.7323 27.4779 14.1759 27.0676 13.7657C26.6574 13.3555 26.101 13.125 25.5208 13.125H15.6115C15.6543 13.0278 15.6908 12.9279 15.7208 12.826C15.7386 12.7859 15.7533 12.7445 15.7646 12.7021C15.7646 12.6146 15.8156 12.5198 15.8448 12.4323L15.9104 12.1625L15.9542 11.9146L15.9979 11.6667H27.7083C28.0951 11.6667 28.466 11.8203 28.7395 12.0938C29.013 12.3673 29.1667 12.7382 29.1667 13.125ZM7.48854 7.51042C8.26046 6.89343 9.22015 6.55895 10.2083 6.5625C11.2415 6.56355 12.2409 6.93018 13.0296 7.59747C13.8184 8.26476 14.3455 9.18964 14.5177 10.2083C14.5619 10.4489 14.5839 10.6929 14.5833 10.9375C14.5775 11.7072 14.3688 12.4618 13.9781 13.125C13.8991 13.2617 13.8114 13.3932 13.7156 13.5187L13.65 13.6062C13.5484 13.7369 13.4389 13.8611 13.3219 13.9781C13.2022 14.0973 13.0756 14.2093 12.9427 14.3135L12.826 14.401C12.7286 14.4758 12.6263 14.544 12.5198 14.6052L12.3812 14.6927C12.249 14.7704 12.1127 14.841 11.9729 14.9042H11.9292C11.7688 14.9698 11.6083 15.0208 11.4479 15.0719H11.2948L10.9156 15.1521H10.7625C10.5814 15.2174 10.3963 15.271 10.2083 15.3125C9.93939 15.3109 9.67107 15.2865 9.40625 15.2396C9.15837 15.1869 8.91467 15.1163 8.67708 15.0281C8.42467 14.935 8.18072 14.8203 7.94792 14.6854C7.73033 14.5538 7.5253 14.4025 7.33542 14.2333L7.14583 14.0729C6.72895 13.6643 6.39805 13.1764 6.17264 12.6379C5.94723 12.0994 5.83186 11.5213 5.83333 10.9375C5.8333 10.2785 5.98215 9.62797 6.26876 9.03454C6.55537 8.44112 6.97235 7.9201 7.48854 7.51042Z" fill="#3C3B5C"/>
<path d="M8.38542 11.6667H9.47917V12.7604C9.47917 12.9538 9.55599 13.1393 9.69273 13.276C9.82948 13.4128 10.0149 13.4896 10.2083 13.4896C10.4017 13.4896 10.5872 13.4128 10.7239 13.276C10.8607 13.1393 10.9375 12.9538 10.9375 12.7604V11.6667H12.0313C12.2246 11.6667 12.4101 11.5898 12.5468 11.4531C12.6836 11.3164 12.7604 11.1309 12.7604 10.9375C12.7604 10.7441 12.6836 10.5586 12.5468 10.4219C12.4101 10.2852 12.2246 10.2083 12.0313 10.2083H10.9375V9.11458C10.9375 8.9212 10.8607 8.73573 10.7239 8.59898C10.5872 8.46224 10.4017 8.38542 10.2083 8.38542C10.0149 8.38542 9.82948 8.46224 9.69273 8.59898C9.55599 8.73573 9.47917 8.9212 9.47917 9.11458V10.2083H8.38542C8.19203 10.2083 8.00656 10.2852 7.86982 10.4219C7.73307 10.5586 7.65625 10.7441 7.65625 10.9375C7.65625 11.1309 7.73307 11.3164 7.86982 11.4531C8.00656 11.5898 8.19203 11.6667 8.38542 11.6667V11.6667Z" fill="#007AFF"/>
</svg>
