<?xml version="1.0" encoding="iso-8859-1"?>
<!-- Generator: Adobe Illustrator 16.0.0, SVG Export Plug-In . SVG Version: 6.00 Build 0)  -->
<!DOCTYPE svg PUBLIC "-//W3C//DTD SVG 1.1//EN" "http://www.w3.org/Graphics/SVG/1.1/DTD/svg11.dtd">
<svg version="1.1" xmlns="http://www.w3.org/2000/svg" xmlns:xlink="http://www.w3.org/1999/xlink" x="0px" y="0px" width="512px"
	 height="512px" viewBox="0 0 512 512" style="enable-background:new 0 0 512 512;" xml:space="preserve">
<g id="_x34_08-Bar_x2C__Gold_x2C__Gold_Bar_x2C__Investment">
	<path style="fill:#FB2B3A;" d="M80,80c11.05,0,20,8.95,20,20s-8.95,20-20,20s-20-8.95-20-20S68.95,80,80,80z"/>
	<path style="fill:#FB2B3A;" d="M425,190c13.81,0,25,11.19,25,25s-11.19,25-25,25s-25-11.19-25-25S411.19,190,425,190z"/>
	<polygon style="fill:#F06000;" points="387.94,310 413.79,390 356.74,390 310.38,390 258.67,390 284.53,310 336.23,310 	"/>
	<polygon style="fill:#F88F19;" points="232.82,310 258.67,390 206.97,390 155.26,390 103.56,390 129.41,310 181.12,310 	"/>
	<polygon style="fill:#FAA71A;" points="333.56,461.72 330.88,470 181.12,470 206.97,390 258.67,390 310.38,390 	"/>
	<polygon style="fill:#FFD400;" points="460.15,390 486,470 336.23,470 333.56,461.72 356.74,390 413.79,390 	"/>
	<polygon style="fill:#FFD400;" points="155.26,390 181.12,470 26,470 51.85,390 103.56,390 	"/>
	<polygon style="fill:#FFD400;" points="310.38,230 336.23,310 284.53,310 232.82,310 181.12,310 206.97,230 	"/>
	<path style="fill:#FFD400;" d="M325.86,164.14c3.62,3.62,8.62,5.86,14.14,5.86c-5.52,0-10.52,2.24-14.14,5.86
		c-3.62,3.62-5.86,8.62-5.86,14.14c0-11.05-8.95-20-20-20c5.52,0,10.52-2.24,14.14-5.86c3.62-3.62,5.86-8.62,5.86-14.14
		C320,155.52,322.24,160.52,325.86,164.14z"/>
	<path style="fill:#FFD400;" d="M242.32,137.68C246.84,142.2,253.1,145,260,145c-6.9,0-13.16,2.8-17.68,7.32S235,163.1,235,170
		c0-13.81-11.19-25-25-25c6.9,0,13.16-2.8,17.68-7.32S235,126.9,235,120C235,126.9,237.8,133.16,242.32,137.68z"/>
	<path style="fill:#FFD400;" d="M145.86,184.14c3.62,3.62,8.62,5.86,14.14,5.86c-5.52,0-10.52,2.24-14.14,5.86
		c-3.62,3.62-5.86,8.62-5.86,14.14c0-11.05-8.95-20-20-20c5.52,0,10.52-2.24,14.14-5.86c3.62-3.62,5.86-8.62,5.86-14.14
		C140,175.52,142.24,180.52,145.86,184.14z"/>
	<path d="M467.07,322.93c1.81,1.811,2.93,4.311,2.93,7.07s-1.12,5.26-2.93,7.07c-1.811,1.81-4.311,2.93-7.07,2.93
		c-5.52,0-10-4.48-10-10c0-2.76,1.12-5.26,2.93-7.07c1.811-1.81,4.311-2.93,7.07-2.93S465.26,321.12,467.07,322.93z"/>
	<path d="M447.07,82.93c1.81,1.81,2.93,4.31,2.93,7.07s-1.12,5.26-2.93,7.07C445.26,98.88,442.76,100,440,100c-5.52,0-10-4.48-10-10
		c0-2.76,1.12-5.26,2.93-7.07C434.74,81.12,437.24,80,440,80S445.26,81.12,447.07,82.93z"/>
	<path d="M367.07,242.93c1.81,1.81,2.93,4.31,2.93,7.07s-1.12,5.26-2.93,7.07c-1.811,1.81-4.311,2.93-7.07,2.93
		c-5.52,0-10-4.48-10-10c0-2.76,1.12-5.26,2.93-7.07c1.811-1.81,4.311-2.93,7.07-2.93S365.26,241.12,367.07,242.93z"/>
	<path d="M317.07,72.93c1.81,1.81,2.93,4.31,2.93,7.07s-1.12,5.26-2.93,7.07C315.26,88.88,312.76,90,310,90c-5.52,0-10-4.48-10-10
		c0-2.76,1.12-5.26,2.93-7.07C304.74,71.12,307.24,70,310,70S315.26,71.12,317.07,72.93z"/>
	<path d="M167.07,92.93c1.81,1.81,2.93,4.31,2.93,7.07s-1.12,5.26-2.93,7.07S162.76,110,160,110c-5.52,0-10-4.48-10-10
		c0-2.76,1.12-5.26,2.93-7.07S157.24,90,160,90S165.26,91.12,167.07,92.93z"/>
	<path d="M77.07,262.93C78.88,264.74,80,267.24,80,270s-1.12,5.26-2.93,7.07C75.26,278.88,72.76,280,70,280c-5.52,0-10-4.48-10-10
		c0-2.76,1.12-5.26,2.93-7.07c1.81-1.81,4.31-2.93,7.07-2.93S75.26,261.12,77.07,262.93z"/>
	<path d="M258.668,400.003c-4.222,0-8.146-2.694-9.514-6.928l-25.85-80c-1.698-5.256,1.186-10.893,6.441-12.591
		c5.258-1.697,10.892,1.187,12.59,6.44l25.85,80c1.698,5.256-1.186,10.893-6.44,12.591
		C260.723,399.846,259.687,400.003,258.668,400.003z"/>
	<path d="M103.562,400.003c-1.019,0-2.055-0.157-3.077-0.487c-5.255-1.698-8.139-7.335-6.441-12.591l25.85-80
		c1.334-4.128,5.177-6.925,9.516-6.925h51.71c5.523,0,10,4.478,10,10s-4.477,10-10,10h-44.432l-23.612,73.075
		C111.708,397.308,107.784,400.003,103.562,400.003z"/>
	<path d="M206.97,400h-51.71c-5.523,0-10-4.478-10-10s4.477-10,10-10h51.71c5.523,0,10,4.478,10,10S212.493,400,206.97,400z"/>
	<path d="M413.788,400.003c-4.222,0-8.146-2.694-9.514-6.929L380.662,320H336.23c-5.522,0-10-4.478-10-10s4.478-10,10-10h51.71
		c4.338,0,8.182,2.797,9.516,6.926l25.85,80c1.698,5.255-1.186,10.892-6.441,12.59C415.843,399.846,414.807,400.003,413.788,400.003
		z"/>
	<path d="M258.672,400.003c-1.02,0-2.056-0.157-3.078-0.487c-5.255-1.699-8.138-7.336-6.439-12.592l25.86-80
		c1.7-5.255,7.336-8.135,12.592-6.439c5.255,1.699,8.138,7.336,6.439,12.592l-25.86,80
		C266.816,397.309,262.893,400.003,258.672,400.003z"/>
	<path d="M356.74,400h-46.36c-5.522,0-10-4.478-10-10s4.478-10,10-10h46.36c5.522,0,10,4.478,10,10S362.263,400,356.74,400z"/>
	<path d="M181.14,480c-0.006,0-0.013,0-0.02,0H26c-3.198,0-6.204-1.529-8.085-4.115s-2.414-5.916-1.43-8.96l25.85-80
		c1.334-4.128,5.177-6.925,9.516-6.925h103.41c4.338,0,8.181,2.797,9.515,6.924l25.66,79.38c0.455,1.144,0.706,2.391,0.706,3.696
		C191.14,475.522,186.663,480,181.14,480z M39.74,460h127.638l-19.395-60H59.128L39.74,460z"/>
	<path d="M336.229,480.003c-0.912,0-1.81-0.126-2.671-0.365c-0.853,0.236-1.75,0.362-2.678,0.362H181.12
		c-3.198,0-6.204-1.529-8.085-4.115s-2.414-5.916-1.43-8.96l25.85-80c1.334-4.128,5.177-6.925,9.516-6.925h103.41
		c4.338,0,8.182,2.797,9.516,6.925l25.853,80.005c1.695,5.257-1.191,10.892-6.447,12.588
		C338.28,479.847,337.245,480.003,336.229,480.003z M194.86,460h127.634l-19.392-60h-88.854L194.86,460z"/>
	<path d="M336.25,320c-0.004,0-0.012,0.001-0.02,0H181.12c-3.198,0-6.204-1.529-8.085-4.115s-2.414-5.916-1.43-8.96l25.85-80
		c1.334-4.128,5.177-6.925,9.516-6.925h103.41c4.338,0,8.182,2.797,9.516,6.925l25.649,79.379c0.455,1.143,0.705,2.39,0.705,3.695
		C346.25,315.522,341.773,320,336.25,320z M194.86,300h127.63l-19.388-60h-88.854L194.86,300z"/>
	<path d="M486.02,480c-0.007-0.001-0.015-0.001-0.02,0H330.88c-3.199,0-6.205-1.53-8.087-4.117s-2.412-5.918-1.428-8.962
		l25.859-79.996c1.334-4.128,5.178-6.925,9.516-6.925h103.41c4.338,0,8.182,2.797,9.516,6.926l25.649,79.379
		c0.454,1.143,0.704,2.39,0.704,3.695C496.02,475.522,491.543,480,486.02,480z M344.625,460H472.26l-19.388-60h-88.854L344.625,460z
		"/>
	<path d="M180,360h-30c-5.523,0-10-4.478-10-10s4.477-10,10-10h30c5.523,0,10,4.478,10,10S185.523,360,180,360z"/>
	<path d="M260,440h-20c-5.523,0-10-4.478-10-10s4.477-10,10-10h20c5.522,0,10,4.478,10,10S265.522,440,260,440z"/>
	<path d="M400,440h-10c-5.522,0-10-4.478-10-10s4.478-10,10-10h10c5.522,0,10,4.478,10,10S405.522,440,400,440z"/>
	<path d="M140,220c-5.523,0-10-4.477-10-10c0-5.514-4.486-10-10-10c-5.523,0-10-4.477-10-10s4.477-10,10-10
		c2.668,0,5.179-1.041,7.069-2.932c1.89-1.889,2.931-4.4,2.931-7.068c0-5.523,4.477-10,10-10s10,4.477,10,10
		c0,2.668,1.041,5.179,2.932,7.069c1.889,1.89,4.4,2.931,7.068,2.931c5.523,0,10,4.477,10,10s-4.477,10-10,10
		c-2.668,0-5.179,1.041-7.069,2.932c-1.89,1.889-2.931,4.4-2.931,7.068C150,215.523,145.523,220,140,220z"/>
	<path d="M320,200c-5.522,0-10-4.477-10-10c0-5.514-4.486-10-10-10c-5.522,0-10-4.477-10-10s4.478-10,10-10
		c2.668,0,5.179-1.041,7.069-2.932c1.89-1.89,2.931-4.4,2.931-7.068c0-5.523,4.478-10,10-10s10,4.477,10,10
		c0,2.668,1.041,5.179,2.932,7.069c1.89,1.89,4.4,2.931,7.068,2.931c5.522,0,10,4.477,10,10s-4.478,10-10,10
		c-2.668,0-5.179,1.041-7.069,2.932c-1.89,1.89-2.931,4.4-2.931,7.068C330,195.523,325.522,200,320,200z"/>
	<path d="M235,180c-5.523,0-10-4.477-10-10c0-8.271-6.729-15-15-15c-5.523,0-10-4.477-10-10s4.477-10,10-10
		c4.01,0,7.778-1.56,10.609-4.391C223.44,127.778,225,124.01,225,120c0-5.523,4.477-10,10-10s10,4.477,10,10
		c0,4.01,1.56,7.778,4.391,10.609C252.222,133.44,255.99,135,260,135c5.522,0,10,4.477,10,10s-4.478,10-10,10
		c-4.01,0-7.778,1.56-10.609,4.391C246.56,162.222,245,165.99,245,170C245,175.523,240.523,180,235,180z M234.486,145.014
		c0.169,0.165,0.335,0.331,0.5,0.5c0.087-0.089,0.175-0.177,0.263-0.265c0.083-0.084,0.167-0.167,0.251-0.249
		c-0.084-0.083-0.167-0.165-0.251-0.249c-0.084-0.083-0.167-0.167-0.249-0.251c-0.083,0.084-0.165,0.167-0.249,0.251
		C234.664,144.839,234.575,144.927,234.486,145.014z"/>
	<path d="M80,130c-16.542,0-30-13.458-30-30s13.458-30,30-30s30,13.458,30,30S96.542,130,80,130z M80,90c-5.514,0-10,4.486-10,10
		s4.486,10,10,10s10-4.486,10-10S85.514,90,80,90z"/>
	<path d="M425,250c-19.299,0-35-15.701-35-35s15.701-35,35-35s35,15.701,35,35S444.299,250,425,250z M425,200
		c-8.271,0-15,6.729-15,15s6.729,15,15,15s15-6.729,15-15S433.271,200,425,200z"/>
</g>
<g id="Layer_1">
</g>
</svg>
